<?xml version="1.0" encoding="UTF-8" standalone="no"?>
<!DOCTYPE svg PUBLIC "-//W3C//DTD SVG 1.1//EN"
 "http://www.w3.org/Graphics/SVG/1.1/DTD/svg11.dtd">
<!-- Generated by graphviz version 2.46.1 (20210213.1702)
 -->
<!-- Pages: 1 -->
<svg width="422pt" height="263pt"
 viewBox="0.00 0.00 422.00 263.00" xmlns="http://www.w3.org/2000/svg" xmlns:xlink="http://www.w3.org/1999/xlink">
<g id="graph0" class="graph" transform="scale(1 1) rotate(0) translate(4 259)">
<polygon fill="white" stroke="transparent" points="-4,4 -4,-259 418,-259 418,4 -4,4"/>
<!-- 1 -->
<g id="node1" class="node">
<title>1</title>
<ellipse fill="none" stroke="black" cx="198" cy="-237" rx="18" ry="18"/>
<text text-anchor="middle" x="198" y="-233.3" font-family="Times,serif" font-size="14.00">1</text>
</g>
<!-- 2 -->
<g id="node2" class="node">
<title>2</title>
<ellipse fill="none" stroke="black" cx="99" cy="-165" rx="18" ry="18"/>
<text text-anchor="middle" x="99" y="-161.3" font-family="Times,serif" font-size="14.00">2</text>
</g>
<!-- 1&#45;&gt;2 -->
<g id="edge1" class="edge">
<title>1&#45;&gt;2</title>
<path fill="none" stroke="black" d="M183.39,-225.67C167.14,-214.18 140.68,-195.47 121.72,-182.06"/>
<polygon fill="black" stroke="black" points="123.53,-179.06 113.35,-176.14 119.49,-184.77 123.53,-179.06"/>
</g>
<!-- 3 -->
<g id="node3" class="node">
<title>3</title>
<ellipse fill="none" stroke="black" cx="198" cy="-165" rx="18" ry="18"/>
<text text-anchor="middle" x="198" y="-161.3" font-family="Times,serif" font-size="14.00">3</text>
</g>
<!-- 1&#45;&gt;3 -->
<g id="edge2" class="edge">
<title>1&#45;&gt;3</title>
<path fill="none" stroke="black" d="M198,-218.69C198,-210.98 198,-201.71 198,-193.11"/>
<polygon fill="black" stroke="black" points="201.5,-193.1 198,-183.1 194.5,-193.1 201.5,-193.1"/>
</g>
<!-- 4 -->
<g id="node4" class="node">
<title>4</title>
<ellipse fill="none" stroke="black" cx="315" cy="-165" rx="18" ry="18"/>
<text text-anchor="middle" x="315" y="-161.3" font-family="Times,serif" font-size="14.00">4</text>
</g>
<!-- 1&#45;&gt;4 -->
<g id="edge3" class="edge">
<title>1&#45;&gt;4</title>
<path fill="none" stroke="black" d="M213.3,-226.85C233.09,-215 267.8,-194.24 291.09,-180.3"/>
<polygon fill="black" stroke="black" points="292.92,-183.29 299.7,-175.15 289.32,-177.28 292.92,-183.29"/>
</g>
<!-- 5 -->
<g id="node5" class="node">
<title>5</title>
<ellipse fill="none" stroke="black" cx="36" cy="-91.5" rx="18" ry="18"/>
<text text-anchor="middle" x="36" y="-87.8" font-family="Times,serif" font-size="14.00">5</text>
</g>
<!-- 2&#45;&gt;5 -->
<g id="edge4" class="edge">
<title>2&#45;&gt;5</title>
<path fill="none" stroke="black" d="M87.44,-150.88C78.12,-140.3 64.83,-125.22 54.1,-113.04"/>
<polygon fill="black" stroke="black" points="56.72,-110.72 47.48,-105.53 51.47,-115.35 56.72,-110.72"/>
</g>
<!-- 6 -->
<g id="node6" class="node">
<title>6</title>
<ellipse fill="none" stroke="black" cx="99" cy="-91.5" rx="18" ry="18"/>
<text text-anchor="middle" x="99" y="-87.8" font-family="Times,serif" font-size="14.00">6</text>
</g>
<!-- 2&#45;&gt;6 -->
<g id="edge5" class="edge">
<title>2&#45;&gt;6</title>
<path fill="none" stroke="black" d="M99,-146.69C99,-138.61 99,-128.8 99,-119.76"/>
<polygon fill="black" stroke="black" points="102.5,-119.65 99,-109.65 95.5,-119.65 102.5,-119.65"/>
</g>
<!-- 7 -->
<g id="node7" class="node">
<title>7</title>
<ellipse fill="none" stroke="black" cx="175" cy="-91.5" rx="18" ry="18"/>
<text text-anchor="middle" x="175" y="-87.8" font-family="Times,serif" font-size="14.00">7</text>
</g>
<!-- 3&#45;&gt;7 -->
<g id="edge6" class="edge">
<title>3&#45;&gt;7</title>
<path fill="none" stroke="black" d="M192.67,-147.41C189.91,-138.84 186.48,-128.18 183.38,-118.54"/>
<polygon fill="black" stroke="black" points="186.7,-117.44 180.31,-108.99 180.04,-119.58 186.7,-117.44"/>
</g>
<!-- 8 -->
<g id="node8" class="node">
<title>8</title>
<ellipse fill="none" stroke="black" cx="234" cy="-91.5" rx="18" ry="18"/>
<text text-anchor="middle" x="234" y="-87.8" font-family="Times,serif" font-size="14.00">8</text>
</g>
<!-- 3&#45;&gt;8 -->
<g id="edge7" class="edge">
<title>3&#45;&gt;8</title>
<path fill="none" stroke="black" d="M205.81,-148.48C210.43,-139.3 216.39,-127.46 221.64,-117.04"/>
<polygon fill="black" stroke="black" points="224.83,-118.49 226.2,-107.98 218.58,-115.34 224.83,-118.49"/>
</g>
<!-- 9 -->
<g id="node9" class="node">
<title>9</title>
<ellipse fill="none" stroke="black" cx="315" cy="-91.5" rx="18" ry="18"/>
<text text-anchor="middle" x="315" y="-87.8" font-family="Times,serif" font-size="14.00">9</text>
</g>
<!-- 4&#45;&gt;9 -->
<g id="edge8" class="edge">
<title>4&#45;&gt;9</title>
<path fill="none" stroke="black" d="M315,-146.69C315,-138.61 315,-128.8 315,-119.76"/>
<polygon fill="black" stroke="black" points="318.5,-119.65 315,-109.65 311.5,-119.65 318.5,-119.65"/>
</g>
<!-- 10 -->
<g id="node10" class="node">
<title>10</title>
<ellipse fill="none" stroke="black" cx="378" cy="-91.5" rx="19.5" ry="19.5"/>
<text text-anchor="middle" x="378" y="-87.8" font-family="Times,serif" font-size="14.00">10</text>
</g>
<!-- 4&#45;&gt;10 -->
<g id="edge9" class="edge">
<title>4&#45;&gt;10</title>
<path fill="none" stroke="black" d="M326.56,-150.88C335.44,-140.79 347.93,-126.62 358.38,-114.76"/>
<polygon fill="black" stroke="black" points="361.23,-116.82 365.22,-107 355.98,-112.19 361.23,-116.82"/>
</g>
<!-- res_0 -->
<g id="node11" class="node">
<title>res_0</title>
<text text-anchor="middle" x="27" y="-14.3" font-family="Times,serif" font-size="14.00">1</text>
</g>
<!-- 5&#45;&gt;res_0 -->
<!-- res_1 -->
<g id="node12" class="node">
<title>res_1</title>
<text text-anchor="middle" x="99" y="-14.3" font-family="Times,serif" font-size="14.00">&#45;1</text>
</g>
<!-- 6&#45;&gt;res_1 -->
<!-- res_2 -->
<g id="node13" class="node">
<title>res_2</title>
<text text-anchor="middle" x="171" y="-14.3" font-family="Times,serif" font-size="14.00">1</text>
</g>
<!-- 7&#45;&gt;res_2 -->
<!-- res_3 -->
<g id="node14" class="node">
<title>res_3</title>
<text text-anchor="middle" x="243" y="-14.3" font-family="Times,serif" font-size="14.00">&#45;1</text>
</g>
<!-- 8&#45;&gt;res_3 -->
<!-- res_4 -->
<g id="node15" class="node">
<title>res_4</title>
<text text-anchor="middle" x="315" y="-14.3" font-family="Times,serif" font-size="14.00">1</text>
</g>
<!-- 9&#45;&gt;res_4 -->
<!-- res_5 -->
<g id="node16" class="node">
<title>res_5</title>
<text text-anchor="middle" x="387" y="-14.3" font-family="Times,serif" font-size="14.00">&#45;1</text>
</g>
<!-- 10&#45;&gt;res_5 -->
</g>
</svg>
