<svg xmlns="http://www.w3.org/2000/svg" xmlns:xlink="http://www.w3.org/1999/xlink" width="535" height="180">
      <style>
        circle {
          fill: none;
          stroke: #000;
          stroke-width: 2;
        }
        .bean {
          fill: #000
        }
        .highlight {
          stroke: red;
        }
      </style>

      <circle cx="48.0" cy="48.0" r="40"/><text x="82.0" y="82.0">4</text><circle cx="136.0" cy="48.0" r="40"/><text x="170.0" y="82.0">6</text><circle cx="224.0" cy="48.0" r="40"/><text x="258.0" y="82.0">4</text><circle cx="312.0" cy="48.0" r="40"/><text x="346.0" y="82.0">1</text><circle cx="400.0" cy="48.0" r="40"/><text x="434.0" y="82.0">2</text><circle cx="488.0" cy="48.0" r="40"/><text x="522.0" y="82.0">3</text><circle cx="48.0" cy="136.0" r="40"/><text x="82.0" y="170.0">3</text><circle cx="136.0" cy="136.0" r="40"/><text x="170.0" y="170.0">3</text><circle cx="224.0" cy="136.0" r="40"/><text x="258.0" y="170.0">3</text><circle cx="312.0" cy="136.0" r="40" class="highlight"/><text x="346.0" y="170.0">5</text><circle cx="400.0" cy="136.0" r="40"/><text x="434.0" y="170.0">2</text><circle cx="488.0" cy="136.0" r="40"/><text x="522.0" y="170.0">2</text>
      <circle cx="58.33077071186662" cy="46.870762868641435" r="4" class="bean"/><circle cx="46.870762868641435" cy="37.66922928813338" r="4" class="bean"/><circle cx="37.66922928813338" cy="49.12923713135856" r="4" class="bean"/><circle cx="49.12923713135856" cy="58.33077071186662" r="4" class="bean"/><circle cx="139.73931243068776" cy="60.884779491543654" r="4" class="bean"/><circle cx="149.02820257718145" cy="51.204050188109285" r="4" class="bean"/><circle cx="145.28889014649366" cy="38.31927069656563" r="4" class="bean"/><circle cx="132.26068756931224" cy="35.115220508456346" r="4" class="bean"/><circle cx="122.97179742281857" cy="44.795949811890715" r="4" class="bean"/><circle cx="126.71110985350634" cy="57.680729303434376" r="4" class="bean"/><circle cx="224.96904456926183" cy="58.34702626955128" r="4" class="bean"/><circle cx="234.34702626955126" cy="47.03095543073819" r="4" class="bean"/><circle cx="223.03095543073817" cy="37.65297373044872" r="4" class="bean"/><circle cx="213.65297373044874" cy="48.96904456926181" r="4" class="bean"/><circle cx="312.0" cy="48.0" r="4" class="bean"/><circle cx="403.7970338820225" cy="43.35429943939849" r="4" class="bean"/><circle cx="396.2029661179775" cy="52.64570056060152" r="4" class="bean"/><circle cx="496.47611922181807" cy="47.605788207271175" r="4" class="bean"/><circle cx="483.42054296211643" cy="40.85657132476439" r="4" class="bean"/><circle cx="484.10333781606556" cy="55.53764046796444" r="4" class="bean"/><circle cx="54.889514681666675" cy="131.04675990374994" r="4" class="bean"/><circle cx="40.26561090477043" cy="132.5101253140558" r="4" class="bean"/><circle cx="48.844874413562884" cy="144.44311478219424" r="4" class="bean"/><circle cx="142.1986551861992" cy="130.20546171963582" r="4" class="bean"/><circle cx="127.88245505290364" cy="133.52907627963341" r="4" class="bean"/><circle cx="137.91888976089717" cy="144.26546200073076" r="4" class="bean"/><circle cx="230.4023816628388" cy="130.43138176534382" r="4" class="bean"/><circle cx="215.97624431339108" cy="133.23968395258603" r="4" class="bean"/><circle cx="225.6213740237701" cy="144.32893428207015" r="4" class="bean"/><circle cx="319.216997869305" cy="126.41277194625852" r="4" class="bean"/><circle cx="305.1121792762645" cy="126.17361075075492" r="4" class="bean"/><circle cx="300.5260948150106" cy="139.51418551102145" r="4" class="bean"/><circle cx="311.79655733571843" cy="147.99827533782877" r="4" class="bean"/><circle cx="323.34817070370156" cy="139.90115645413636" r="4" class="bean"/><circle cx="405.267997298567" cy="138.87196874326492" r="4" class="bean"/><circle cx="394.732002701433" cy="133.12803125673508" r="4" class="bean"/><circle cx="493.31011590953506" cy="138.7933258004219" r="4" class="bean"/><circle cx="482.68988409046494" cy="133.2066741995781" r="4" class="bean"/>
    </svg>