<svg xmlns="http://www.w3.org/2000/svg" xmlns:xlink="http://www.w3.org/1999/xlink" width="535" height="180">
      <style>
        circle {
          fill: none;
          stroke: #000;
          stroke-width: 2;
        }
        .bean {
          fill: #000
        }
        .highlight {
          stroke: red;
        }
      </style>

      <circle cx="48.0" cy="48.0" r="40"/><text x="82.0" y="82.0">4</text><circle cx="136.0" cy="48.0" r="40"/><text x="170.0" y="82.0">4</text><circle cx="224.0" cy="48.0" r="40"/><text x="258.0" y="82.0">4</text><circle cx="312.0" cy="48.0" r="40"/><text x="346.0" y="82.0">4</text><circle cx="400.0" cy="48.0" r="40"/><text x="434.0" y="82.0">5</text><circle cx="488.0" cy="48.0" r="40"/><text x="522.0" y="82.0">5</text><circle cx="48.0" cy="136.0" r="40"/><text x="82.0" y="170.0">4</text><circle cx="136.0" cy="136.0" r="40"/><text x="170.0" y="170.0">4</text><circle cx="224.0" cy="136.0" r="40"/><text x="258.0" y="170.0">4</text><circle cx="312.0" cy="136.0" r="40" class="highlight"/><text x="346.0" y="170.0">0</text><circle cx="400.0" cy="136.0" r="40"/><text x="434.0" y="170.0">5</text><circle cx="488.0" cy="136.0" r="40"/><text x="522.0" y="170.0">5</text>
      <circle cx="54.67520659117993" cy="55.96502460542766" r="4" class="bean"/><circle cx="55.96502460542766" cy="41.32479340882007" r="4" class="bean"/><circle cx="41.32479340882007" cy="40.03497539457234" r="4" class="bean"/><circle cx="40.03497539457234" cy="54.67520659117993" r="4" class="bean"/><circle cx="142.28874011852747" cy="56.27355713835488" r="4" class="bean"/><circle cx="144.27355713835487" cy="41.71125988147253" r="4" class="bean"/><circle cx="129.71125988147253" cy="39.72644286164511" r="4" class="bean"/><circle cx="127.72644286164513" cy="54.28874011852748" r="4" class="bean"/><circle cx="231.5820538180255" cy="55.107211823251426" r="4" class="bean"/><circle cx="231.10721182325142" cy="40.41794618197449" r="4" class="bean"/><circle cx="216.4179461819745" cy="40.892788176748574" r="4" class="bean"/><circle cx="216.89278817674858" cy="55.58205381802551" r="4" class="bean"/><circle cx="313.00208742241995" cy="58.34387842145429" r="4" class="bean"/><circle cx="322.3438784214543" cy="46.997912577580045" r="4" class="bean"/><circle cx="310.99791257758005" cy="37.65612157854571" r="4" class="bean"/><circle cx="301.6561215785457" cy="49.00208742241995" r="4" class="bean"/><circle cx="407.35009626597525" cy="57.48557245931402" r="4" class="bean"/><circle cx="411.2926201546986" cy="43.94084614215056" r="4" class="bean"/><circle cx="399.62912681167063" cy="36.00573249096976" r="4" class="bean"/><circle cx="388.47816760939776" cy="44.64628886711022" r="4" class="bean"/><circle cx="393.24998915825773" cy="57.92156004045544" r="4" class="bean"/><circle cx="491.78341550962494" cy="36.61203411132921" r="4" class="bean"/><circle cx="478.3385405234886" cy="40.882683034757584" r="4" class="bean"/><circle cx="478.24547415296126" cy="54.989222095444724" r="4" class="bean"/><circle cx="491.6328309589021" cy="59.43689377514902" r="4" class="bean"/><circle cx="499.99973885502317" cy="48.07916698331947" r="4" class="bean"/><circle cx="58.391090522510815" cy="135.84113605511035" r="4" class="bean"/><circle cx="47.84113605511035" cy="125.60890947748919" r="4" class="bean"/><circle cx="37.608909477489185" cy="136.15886394488965" r="4" class="bean"/><circle cx="48.158863944889646" cy="146.3910905225108" r="4" class="bean"/><circle cx="140.67952808369867" cy="126.72088275136716" r="4" class="bean"/><circle cx="126.72088275136717" cy="131.32047191630133" r="4" class="bean"/><circle cx="131.32047191630133" cy="145.27911724863284" r="4" class="bean"/><circle cx="145.27911724863284" cy="140.67952808369867" r="4" class="bean"/><circle cx="227.8557906042906" cy="126.349462252503" r="4" class="bean"/><circle cx="214.349462252503" cy="132.1442093957094" r="4" class="bean"/><circle cx="220.1442093957094" cy="145.650537747497" r="4" class="bean"/><circle cx="233.650537747497" cy="139.8557906042906" r="4" class="bean"/><circle cx="411.98591144098333" cy="136.5813148277009" r="4" class="bean"/><circle cx="404.2567135832409" cy="124.7803569811579" r="4" class="bean"/><circle cx="390.6448822338329" cy="128.4845644450142" r="4" class="bean"/><circle cx="389.96150566850986" cy="142.57484840560144" r="4" class="bean"/><circle cx="403.15098707343304" cy="147.57891534052555" r="4" class="bean"/><circle cx="498.04151260927506" cy="129.42976221756248" r="4" class="bean"/><circle cx="484.8543305889005" cy="124.41963886763142" r="4" class="bean"/><circle cx="476.01435677729455" cy="135.41318100063552" r="4" class="bean"/><circle cx="483.7381345224377" cy="147.21768704551712" r="4" class="bean"/><circle cx="497.35166550209215" cy="143.51973086865345" r="4" class="bean"/>
    </svg>