<svg xmlns="http://www.w3.org/2000/svg" xmlns:xlink="http://www.w3.org/1999/xlink" width="535" height="180">
      <style>
        circle {
          fill: none;
          stroke: #000;
          stroke-width: 2;
        }
        .bean {
          fill: #000
        }
        .highlight {
          stroke: red;
        }
      </style>

      <circle cx="48.0" cy="48.0" r="40"/><text x="82.0" y="82.0">4</text><circle cx="136.0" cy="48.0" r="40"/><text x="170.0" y="82.0">4</text><circle cx="224.0" cy="48.0" r="40"/><text x="258.0" y="82.0">4</text><circle cx="312.0" cy="48.0" r="40"/><text x="346.0" y="82.0">4</text><circle cx="400.0" cy="48.0" r="40"/><text x="434.0" y="82.0">4</text><circle cx="488.0" cy="48.0" r="40"/><text x="522.0" y="82.0">4</text><circle cx="48.0" cy="136.0" r="40"/><text x="82.0" y="170.0">4</text><circle cx="136.0" cy="136.0" r="40"/><text x="170.0" y="170.0">4</text><circle cx="224.0" cy="136.0" r="40"/><text x="258.0" y="170.0">4</text><circle cx="312.0" cy="136.0" r="40"/><text x="346.0" y="170.0">4</text><circle cx="400.0" cy="136.0" r="40"/><text x="434.0" y="170.0">4</text><circle cx="488.0" cy="136.0" r="40"/><text x="522.0" y="170.0">4</text>
      <circle cx="57.776392789047875" cy="51.524506211407875" r="4" class="bean"/><circle cx="51.52450621140787" cy="38.223607210952125" r="4" class="bean"/><circle cx="38.223607210952125" cy="44.47549378859213" r="4" class="bean"/><circle cx="44.475493788592125" cy="57.776392789047875" r="4" class="bean"/><circle cx="146.33186414030598" cy="46.88081128210673" r="4" class="bean"/><circle cx="134.88081128210672" cy="37.66813585969403" r="4" class="bean"/><circle cx="125.66813585969403" cy="49.119188717893266" r="4" class="bean"/><circle cx="137.11918871789328" cy="58.33186414030597" r="4" class="bean"/><circle cx="233.96180229575887" cy="50.96015118198604" r="4" class="bean"/><circle cx="226.96015118198605" cy="38.038197704241135" r="4" class="bean"/><circle cx="214.03819770424113" cy="45.03984881801395" r="4" class="bean"/><circle cx="221.03984881801395" cy="57.961802295758865" r="4" class="bean"/><circle cx="319.5100994524531" cy="40.81679693909025" r="4" class="bean"/><circle cx="304.81679693909024" cy="40.48990054754687" r="4" class="bean"/><circle cx="304.4899005475469" cy="55.18320306090974" r="4" class="bean"/><circle cx="319.18320306090976" cy="55.51009945245314" r="4" class="bean"/><circle cx="410.3435662541287" cy="49.005304504341986" r="4" class="bean"/><circle cx="401.005304504342" cy="37.65643374587131" r="4" class="bean"/><circle cx="389.6564337458713" cy="46.99469549565801" r="4" class="bean"/><circle cx="398.994695495658" cy="58.34356625412869" r="4" class="bean"/><circle cx="494.73039450084" cy="40.08155382268322" r="4" class="bean"/><circle cx="480.0815538226832" cy="41.26960549916001" r="4" class="bean"/><circle cx="481.26960549916" cy="55.91844617731678" r="4" class="bean"/><circle cx="495.9184461773168" cy="54.73039450083999" r="4" class="bean"/><circle cx="58.37488565087998" cy="136.60145467922752" r="4" class="bean"/><circle cx="48.601454679227515" cy="125.62511434912003" r="4" class="bean"/><circle cx="37.62511434912002" cy="135.39854532077248" r="4" class="bean"/><circle cx="47.398545320772485" cy="146.37488565087997" r="4" class="bean"/><circle cx="145.48182987485808" cy="131.74618968167962" r="4" class="bean"/><circle cx="131.74618968167965" cy="126.51817012514192" r="4" class="bean"/><circle cx="126.51817012514192" cy="140.25381031832035" r="4" class="bean"/><circle cx="140.25381031832035" cy="145.48182987485808" r="4" class="bean"/><circle cx="234.36094883416834" cy="136.80668411149958" r="4" class="bean"/><circle cx="224.80668411149958" cy="125.63905116583166" r="4" class="bean"/><circle cx="213.63905116583166" cy="135.19331588850042" r="4" class="bean"/><circle cx="223.19331588850042" cy="146.36094883416834" r="4" class="bean"/><circle cx="315.3772325643266" cy="145.82823993431438" r="4" class="bean"/><circle cx="321.82823993431435" cy="132.62276743567338" r="4" class="bean"/><circle cx="308.6227674356734" cy="126.17176006568562" r="4" class="bean"/><circle cx="302.17176006568565" cy="139.37723256432662" r="4" class="bean"/><circle cx="409.2902649594875" cy="131.3426427040092" r="4" class="bean"/><circle cx="395.34264270400917" cy="126.70973504051251" r="4" class="bean"/><circle cx="390.7097350405125" cy="140.6573572959908" r="4" class="bean"/><circle cx="404.65735729599083" cy="145.2902649594875" r="4" class="bean"/><circle cx="495.1804464869795" cy="128.4872649289607" r="4" class="bean"/><circle cx="480.4872649289607" cy="128.8195535130205" r="4" class="bean"/><circle cx="480.8195535130205" cy="143.5127350710393" r="4" class="bean"/><circle cx="495.5127350710393" cy="143.1804464869795" r="4" class="bean"/>
    </svg>