<svg xmlns="http://www.w3.org/2000/svg" xmlns:xlink="http://www.w3.org/1999/xlink" width="535" height="180">
      <style>
        circle {
          fill: none;
          stroke: #000;
          stroke-width: 2;
        }
        .bean {
          fill: #000
        }
        .highlight {
          stroke: red;
        }
      </style>

      <circle cx="48.0" cy="48.0" r="40"/><text x="82.0" y="82.0">4</text><circle cx="136.0" cy="48.0" r="40"/><text x="170.0" y="82.0">4</text><circle cx="224.0" cy="48.0" r="40"/><text x="258.0" y="82.0">4</text><circle cx="312.0" cy="48.0" r="40"/><text x="346.0" y="82.0">4</text><circle cx="400.0" cy="48.0" r="40"/><text x="434.0" y="82.0">5</text><circle cx="488.0" cy="48.0" r="40"/><text x="522.0" y="82.0">5</text><circle cx="48.0" cy="136.0" r="40"/><text x="82.0" y="170.0">4</text><circle cx="136.0" cy="136.0" r="40"/><text x="170.0" y="170.0">4</text><circle cx="224.0" cy="136.0" r="40"/><text x="258.0" y="170.0">4</text><circle cx="312.0" cy="136.0" r="40" class="highlight"/><text x="346.0" y="170.0">0</text><circle cx="400.0" cy="136.0" r="40"/><text x="434.0" y="170.0">5</text><circle cx="488.0" cy="136.0" r="40"/><text x="522.0" y="170.0">5</text>
      <circle cx="58.19679791591028" cy="50.00631808596934" r="4" class="bean"/><circle cx="50.00631808596934" cy="37.80320208408972" r="4" class="bean"/><circle cx="37.80320208408972" cy="45.99368191403066" r="4" class="bean"/><circle cx="45.99368191403066" cy="58.19679791591028" r="4" class="bean"/><circle cx="140.16630376660459" cy="38.47939534880392" r="4" class="bean"/><circle cx="126.47939534880392" cy="43.83369623339542" r="4" class="bean"/><circle cx="131.83369623339541" cy="57.52060465119608" r="4" class="bean"/><circle cx="145.5206046511961" cy="52.16630376660458" r="4" class="bean"/><circle cx="234.3570137238723" cy="47.14427415399539" r="4" class="bean"/><circle cx="223.14427415399538" cy="37.64298627612767" r="4" class="bean"/><circle cx="213.6429862761277" cy="48.85572584600461" r="4" class="bean"/><circle cx="224.85572584600462" cy="58.35701372387233" r="4" class="bean"/><circle cx="320.6291675922412" cy="42.208845826174645" r="4" class="bean"/><circle cx="306.20884582617464" cy="39.37083240775884" r="4" class="bean"/><circle cx="303.3708324077588" cy="53.79115417382536" r="4" class="bean"/><circle cx="317.79115417382536" cy="56.62916759224116" r="4" class="bean"/><circle cx="407.8005315333329" cy="57.11875582508267" r="4" class="bean"/><circle cx="411.0829489569068" cy="43.399104172164016" r="4" class="bean"/><circle cx="399.0491076176157" cy="36.03773417461711" r="4" class="bean"/><circle cx="388.32936723113636" cy="45.20780896528805" r="4" class="bean"/><circle cx="393.73804466100825" cy="58.236596862848174" r="4" class="bean"/><circle cx="498.36581751276714" cy="41.954354683575154" r="4" class="bean"/><circle cx="485.45346339863937" cy="36.27331456301779" r="4" class="bean"/><circle cx="476.06033631399634" cy="46.798155140991426" r="4" class="bean"/><circle cx="483.1674186291675" cy="58.98390446491059" r="4" class="bean"/><circle cx="496.95296414542963" cy="55.99027114750505" r="4" class="bean"/><circle cx="50.63801858005013" cy="125.94809182436936" r="4" class="bean"/><circle cx="37.94809182436935" cy="133.36198141994987" r="4" class="bean"/><circle cx="45.36198141994987" cy="146.05190817563064" r="4" class="bean"/><circle cx="58.05190817563065" cy="138.63801858005013" r="4" class="bean"/><circle cx="145.7011488283653" cy="132.27337801623148" r="4" class="bean"/><circle cx="132.2733780162315" cy="126.29885117163471" r="4" class="bean"/><circle cx="126.29885117163471" cy="139.72662198376852" r="4" class="bean"/><circle cx="139.72662198376852" cy="145.7011488283653" r="4" class="bean"/><circle cx="230.18116195653835" cy="144.35423466674496" r="4" class="bean"/><circle cx="232.35423466674496" cy="129.81883804346165" r="4" class="bean"/><circle cx="217.81883804346165" cy="127.64576533325504" r="4" class="bean"/><circle cx="215.64576533325504" cy="142.18116195653835" r="4" class="bean"/><circle cx="406.6165455374505" cy="146.011060141206" r="4" class="bean"/><circle cx="411.5657089974446" cy="132.8008789665864" r="4" class="bean"/><circle cx="400.5314557269607" cy="124.01177432601969" r="4" class="bean"/><circle cx="388.7627487053329" cy="131.78999010208966" r="4" class="bean"/><circle cx="392.5235410328113" cy="145.38629646409825" r="4" class="bean"/><circle cx="492.4390087832571" cy="147.14877576338165" r="4" class="bean"/><circle cx="499.9748449906837" cy="135.22341294815237" r="4" class="bean"/><circle cx="490.9618524309968" cy="124.37126704335343" r="4" class="bean"/><circle cx="477.8556804813338" cy="129.589634838544" r="4" class="bean"/><circle cx="478.7686133137285" cy="143.66690940656855" r="4" class="bean"/>
    </svg>