<svg xmlns="http://www.w3.org/2000/svg" xmlns:xlink="http://www.w3.org/1999/xlink" width="535" height="180">
      <style>
        circle {
          fill: none;
          stroke: #000;
          stroke-width: 2;
        }
        .bean {
          fill: #000
        }
        .highlight {
          stroke: red;
        }
      </style>

      <circle cx="48.0" cy="48.0" r="40"/><text x="82.0" y="82.0">4</text><circle cx="136.0" cy="48.0" r="40"/><text x="170.0" y="82.0">4</text><circle cx="224.0" cy="48.0" r="40"/><text x="258.0" y="82.0">4</text><circle cx="312.0" cy="48.0" r="40"/><text x="346.0" y="82.0">4</text><circle cx="400.0" cy="48.0" r="40"/><text x="434.0" y="82.0">4</text><circle cx="488.0" cy="48.0" r="40"/><text x="522.0" y="82.0">4</text><circle cx="48.0" cy="136.0" r="40"/><text x="82.0" y="170.0">4</text><circle cx="136.0" cy="136.0" r="40"/><text x="170.0" y="170.0">4</text><circle cx="224.0" cy="136.0" r="40"/><text x="258.0" y="170.0">4</text><circle cx="312.0" cy="136.0" r="40"/><text x="346.0" y="170.0">4</text><circle cx="400.0" cy="136.0" r="40"/><text x="434.0" y="170.0">4</text><circle cx="488.0" cy="136.0" r="40"/><text x="522.0" y="170.0">4</text>
      <circle cx="55.901082871752074" cy="54.75076954529674" r="4" class="bean"/><circle cx="54.75076954529675" cy="40.098917128247926" r="4" class="bean"/><circle cx="40.098917128247926" cy="41.24923045470325" r="4" class="bean"/><circle cx="41.24923045470325" cy="55.901082871752074" r="4" class="bean"/><circle cx="140.9324555564444" cy="38.8528210805899" r="4" class="bean"/><circle cx="126.8528210805899" cy="43.067544443555576" r="4" class="bean"/><circle cx="131.0675444435556" cy="57.1471789194101" r="4" class="bean"/><circle cx="145.1471789194101" cy="52.932455556444424" r="4" class="bean"/><circle cx="233.83718258326508" cy="51.35109516777815" r="4" class="bean"/><circle cx="227.35109516777814" cy="38.16281741673491" r="4" class="bean"/><circle cx="214.16281741673492" cy="44.64890483222185" r="4" class="bean"/><circle cx="220.64890483222186" cy="57.83718258326509" r="4" class="bean"/><circle cx="315.6503752816875" cy="57.73009559577114" r="4" class="bean"/><circle cx="321.73009559577116" cy="44.349624718312505" r="4" class="bean"/><circle cx="308.3496247183125" cy="38.26990440422886" r="4" class="bean"/><circle cx="302.26990440422884" cy="51.6503752816875" r="4" class="bean"/><circle cx="407.80516174799794" cy="41.138553353148495" r="4" class="bean"/><circle cx="393.1385533531485" cy="40.19483825200206" r="4" class="bean"/><circle cx="392.19483825200206" cy="54.861446646851505" r="4" class="bean"/><circle cx="406.8614466468515" cy="55.80516174799794" r="4" class="bean"/><circle cx="493.89491175695895" cy="56.5586222826847" r="4" class="bean"/><circle cx="496.5586222826847" cy="42.105088243041045" r="4" class="bean"/><circle cx="482.10508824304105" cy="39.4413777173153" r="4" class="bean"/><circle cx="479.4413777173153" cy="53.894911756958955" r="4" class="bean"/><circle cx="54.58683405228791" cy="127.9617404142675" r="4" class="bean"/><circle cx="39.961740414267496" cy="129.4131659477121" r="4" class="bean"/><circle cx="41.413165947712095" cy="144.0382595857325" r="4" class="bean"/><circle cx="56.038259585732504" cy="142.5868340522879" r="4" class="bean"/><circle cx="140.57222739103477" cy="126.66754390930923" r="4" class="bean"/><circle cx="126.66754390930923" cy="131.42777260896523" r="4" class="bean"/><circle cx="131.42777260896523" cy="145.33245609069078" r="4" class="bean"/><circle cx="145.33245609069078" cy="140.57222739103477" r="4" class="bean"/><circle cx="234.3613053061713" cy="135.19790751636322" r="4" class="bean"/><circle cx="223.19790751636322" cy="125.63869469382871" r="4" class="bean"/><circle cx="213.6386946938287" cy="136.80209248363678" r="4" class="bean"/><circle cx="224.80209248363678" cy="146.3613053061713" r="4" class="bean"/><circle cx="322.2926891682792" cy="137.43546148857732" r="4" class="bean"/><circle cx="313.43546148857735" cy="125.70731083172083" r="4" class="bean"/><circle cx="301.7073108317208" cy="134.56453851142268" r="4" class="bean"/><circle cx="310.56453851142265" cy="146.29268916827917" r="4" class="bean"/><circle cx="402.60712507749486" cy="146.05996515055085" r="4" class="bean"/><circle cx="410.05996515055085" cy="133.39287492250514" r="4" class="bean"/><circle cx="397.39287492250514" cy="125.94003484944916" r="4" class="bean"/><circle cx="389.94003484944915" cy="138.60712507749486" r="4" class="bean"/><circle cx="498.23358214779284" cy="137.80936354124185" r="4" class="bean"/><circle cx="489.80936354124185" cy="125.76641785220714" r="4" class="bean"/><circle cx="477.76641785220716" cy="134.19063645875815" r="4" class="bean"/><circle cx="486.19063645875815" cy="146.23358214779284" r="4" class="bean"/>
    </svg>