<svg xmlns="http://www.w3.org/2000/svg" xmlns:xlink="http://www.w3.org/1999/xlink" width="535" height="180">
      <style>
        circle {
          fill: none;
          stroke: #000;
          stroke-width: 2;
        }
        .bean {
          fill: #000
        }
        .highlight {
          stroke: red;
        }
      </style>

      <circle cx="48.0" cy="48.0" r="40"/><text x="82.0" y="82.0">4</text><circle cx="136.0" cy="48.0" r="40"/><text x="170.0" y="82.0">6</text><circle cx="224.0" cy="48.0" r="40"/><text x="258.0" y="82.0">4</text><circle cx="312.0" cy="48.0" r="40" class="highlight"/><text x="346.0" y="82.0">2</text><circle cx="400.0" cy="48.0" r="40" class="highlight"/><text x="434.0" y="82.0">3</text><circle cx="488.0" cy="48.0" r="40"/><text x="522.0" y="82.0">4</text><circle cx="48.0" cy="136.0" r="40"/><text x="82.0" y="170.0">3</text><circle cx="136.0" cy="136.0" r="40"/><text x="170.0" y="170.0">3</text><circle cx="224.0" cy="136.0" r="40"/><text x="258.0" y="170.0">3</text><circle cx="312.0" cy="136.0" r="40"/><text x="346.0" y="170.0">0</text><circle cx="400.0" cy="136.0" r="40"/><text x="434.0" y="170.0">3</text><circle cx="488.0" cy="136.0" r="40"/><text x="522.0" y="170.0">3</text>
      <circle cx="57.65207659492972" cy="51.851936838216574" r="4" class="bean"/><circle cx="51.85193683821658" cy="38.34792340507028" r="4" class="bean"/><circle cx="38.34792340507028" cy="44.14806316178342" r="4" class="bean"/><circle cx="44.14806316178342" cy="57.65207659492972" r="4" class="bean"/><circle cx="149.3957281777676" cy="47.25537486789458" r="4" class="bean"/><circle cx="142.05299980818418" cy="36.02664652980952" r="4" class="bean"/><circle cx="128.65727163041657" cy="36.77127166191494" r="4" class="bean"/><circle cx="122.60427182223239" cy="48.74462513210541" r="4" class="bean"/><circle cx="129.94700019181582" cy="59.973353470190474" r="4" class="bean"/><circle cx="143.34272836958343" cy="59.22872833808506" r="4" class="bean"/><circle cx="227.7468500349619" cy="38.30664584287224" r="4" class="bean"/><circle cx="214.30664584287223" cy="44.25314996503809" r="4" class="bean"/><circle cx="220.2531499650381" cy="57.69335415712776" r="4" class="bean"/><circle cx="233.69335415712777" cy="51.74685003496191" r="4" class="bean"/><circle cx="313.20106334233236" cy="53.87855822865653" r="4" class="bean"/><circle cx="310.79893665766764" cy="42.12144177134347" r="4" class="bean"/><circle cx="405.0717405352781" cy="54.802752967940066" r="4" class="bean"/><circle cx="403.35548661826704" cy="40.20636737107588" r="4" class="bean"/><circle cx="391.5727728464549" cy="48.990879660984056" r="4" class="bean"/><circle cx="488.70379475209114" cy="37.631553976273544" r="4" class="bean"/><circle cx="477.63155397627355" cy="47.29620524790884" r="4" class="bean"/><circle cx="487.29620524790886" cy="58.368446023726456" r="4" class="bean"/><circle cx="498.36844602372645" cy="48.70379475209116" r="4" class="bean"/><circle cx="56.14912251807388" cy="138.3646991744028" r="4" class="bean"/><circle cx="45.97332829830397" cy="127.7603032935948" r="4" class="bean"/><circle cx="41.87754918362215" cy="141.8749975320024" r="4" class="bean"/><circle cx="140.98245305684034" cy="142.8684176879673" r="4" class="bean"/><circle cx="139.4569976731619" cy="128.25086023562918" r="4" class="bean"/><circle cx="127.56054926999775" cy="136.88072207640352" r="4" class="bean"/><circle cx="226.6729324021207" cy="127.94671294602674" r="4" class="bean"/><circle cx="215.68918262623046" cy="137.71181616415154" r="4" class="bean"/><circle cx="229.63788497164882" cy="142.34147088982172" r="4" class="bean"/><circle cx="405.0026375533266" cy="142.85373018946953" r="4" class="bean"/><circle cx="403.43418567810164" cy="128.24072369815835" r="4" class="bean"/><circle cx="391.56317676857174" cy="136.90554611237212" r="4" class="bean"/><circle cx="495.764564276412" cy="139.4222129678714" r="4" class="bean"/><circle cx="487.0814412291312" cy="127.5645836033744" r="4" class="bean"/><circle cx="481.15399449445687" cy="141.0132034287542" r="4" class="bean"/>
    </svg>