<svg xmlns="http://www.w3.org/2000/svg" xmlns:xlink="http://www.w3.org/1999/xlink" width="535" height="180">
      <style>
        circle {
          fill: none;
          stroke: #000;
          stroke-width: 2;
        }
        .bean {
          fill: #000
        }
        .highlight {
          stroke: red;
        }
      </style>

      <circle cx="48.0" cy="48.0" r="40"/><text x="82.0" y="82.0">4</text><circle cx="136.0" cy="48.0" r="40"/><text x="170.0" y="82.0">4</text><circle cx="224.0" cy="48.0" r="40"/><text x="258.0" y="82.0">4</text><circle cx="312.0" cy="48.0" r="40"/><text x="346.0" y="82.0">4</text><circle cx="400.0" cy="48.0" r="40"/><text x="434.0" y="82.0">5</text><circle cx="488.0" cy="48.0" r="40"/><text x="522.0" y="82.0">5</text><circle cx="48.0" cy="136.0" r="40"/><text x="82.0" y="170.0">4</text><circle cx="136.0" cy="136.0" r="40"/><text x="170.0" y="170.0">4</text><circle cx="224.0" cy="136.0" r="40"/><text x="258.0" y="170.0">4</text><circle cx="312.0" cy="136.0" r="40" class="highlight"/><text x="346.0" y="170.0">0</text><circle cx="400.0" cy="136.0" r="40"/><text x="434.0" y="170.0">5</text><circle cx="488.0" cy="136.0" r="40"/><text x="522.0" y="170.0">5</text>
      <circle cx="56.966873559517595" cy="53.25311132259961" r="4" class="bean"/><circle cx="53.25311132259961" cy="39.033126440482405" r="4" class="bean"/><circle cx="39.033126440482405" cy="42.74688867740039" r="4" class="bean"/><circle cx="42.74688867740039" cy="56.966873559517595" r="4" class="bean"/><circle cx="139.37394131094666" cy="38.17062972361467" r="4" class="bean"/><circle cx="126.17062972361467" cy="44.62605868905333" r="4" class="bean"/><circle cx="132.62605868905334" cy="57.82937027638533" r="4" class="bean"/><circle cx="145.82937027638533" cy="51.37394131094668" r="4" class="bean"/><circle cx="233.89139671235023" cy="44.81248198767328" r="4" class="bean"/><circle cx="220.8124819876733" cy="38.10860328764978" r="4" class="bean"/><circle cx="214.10860328764977" cy="51.18751801232672" r="4" class="bean"/><circle cx="227.1875180123267" cy="57.89139671235022" r="4" class="bean"/><circle cx="322.0253692754107" cy="45.26285351293521" r="4" class="bean"/><circle cx="309.26285351293524" cy="37.9746307245893" r="4" class="bean"/><circle cx="301.9746307245893" cy="50.73714648706479" r="4" class="bean"/><circle cx="314.73714648706476" cy="58.0253692754107" r="4" class="bean"/><circle cx="410.36157005783275" cy="54.052922099005066" r="4" class="bean"/><circle cx="408.95857224116264" cy="40.01601707166966" r="4" class="bean"/><circle cx="395.1751320778771" cy="37.01270508568787" r="4" class="bean"/><circle cx="388.05949539173633" cy="49.193461226866575" r="4" class="bean"/><circle cx="397.44523023139124" cy="59.72489451677083" r="4" class="bean"/><circle cx="491.6860663545659" cy="59.41984740833856" r="4" class="bean"/><circle cx="499.9999774387513" cy="48.02326949633905" r="4" class="bean"/><circle cx="491.73032756681425" cy="36.59453393130006" r="4" class="bean"/><circle cx="478.3054917867106" cy="40.92776481567074" r="4" class="bean"/><circle cx="478.2781368531579" cy="55.03458434835157" r="4" class="bean"/><circle cx="56.79916137679248" cy="141.52944473389178" r="4" class="bean"/><circle cx="53.52944473389177" cy="127.20083862320752" r="4" class="bean"/><circle cx="39.20083862320752" cy="130.47055526610822" r="4" class="bean"/><circle cx="42.47055526610823" cy="144.79916137679248" r="4" class="bean"/><circle cx="144.123541084034" cy="142.48136407371257" r="4" class="bean"/><circle cx="142.48136407371257" cy="127.87645891596601" r="4" class="bean"/><circle cx="127.87645891596601" cy="129.51863592628743" r="4" class="bean"/><circle cx="129.51863592628743" cy="144.123541084034" r="4" class="bean"/><circle cx="231.30956755878827" cy="143.38716604006638" r="4" class="bean"/><circle cx="231.38716604006638" cy="128.69043244121173" r="4" class="bean"/><circle cx="216.69043244121173" cy="128.61283395993362" r="4" class="bean"/><circle cx="216.6128339599336" cy="143.30956755878827" r="4" class="bean"/><circle cx="408.37602707964214" cy="127.40685329107544" r="4" class="bean"/><circle cx="394.4157665399512" cy="125.37849649702682" r="4" class="bean"/><circle cx="388.17272684093325" cy="138.02869653246108" r="4" class="bean"/><circle cx="398.2745766535162" cy="147.8753069128932" r="4" class="bean"/><circle cx="410.76090288595714" cy="141.3106467665435" r="4" class="bean"/><circle cx="497.29034824942903" cy="128.4046442213461" r="4" class="bean"/><circle cx="483.64726288586627" cy="124.81725974480123" r="4" class="bean"/><circle cx="476.0195122699432" cy="136.68404221357937" r="4" class="bean"/><circle cx="484.94838849515753" cy="147.60550159293052" r="4" class="bean"/><circle cx="498.09448809960395" cy="142.48855222734272" r="4" class="bean"/>
    </svg>