<svg xmlns="http://www.w3.org/2000/svg" xmlns:xlink="http://www.w3.org/1999/xlink" width="535" height="180">
      <style>
        circle {
          fill: none;
          stroke: #000;
          stroke-width: 2;
        }
        .bean {
          fill: #000
        }
        .highlight {
          stroke: red;
        }
      </style>

      <circle cx="48.0" cy="48.0" r="40"/><text x="82.0" y="82.0">4</text><circle cx="136.0" cy="48.0" r="40"/><text x="170.0" y="82.0">6</text><circle cx="224.0" cy="48.0" r="40"/><text x="258.0" y="82.0">4</text><circle cx="312.0" cy="48.0" r="40"/><text x="346.0" y="82.0">1</text><circle cx="400.0" cy="48.0" r="40"/><text x="434.0" y="82.0">2</text><circle cx="488.0" cy="48.0" r="40"/><text x="522.0" y="82.0">3</text><circle cx="48.0" cy="136.0" r="40"/><text x="82.0" y="170.0">3</text><circle cx="136.0" cy="136.0" r="40"/><text x="170.0" y="170.0">3</text><circle cx="224.0" cy="136.0" r="40"/><text x="258.0" y="170.0">3</text><circle cx="312.0" cy="136.0" r="40" class="highlight"/><text x="346.0" y="170.0">5</text><circle cx="400.0" cy="136.0" r="40"/><text x="434.0" y="170.0">2</text><circle cx="488.0" cy="136.0" r="40"/><text x="522.0" y="170.0">2</text>
      <circle cx="53.51394948737579" cy="56.808879670574925" r="4" class="bean"/><circle cx="56.80887967057493" cy="42.48605051262421" r="4" class="bean"/><circle cx="42.48605051262422" cy="39.19112032942507" r="4" class="bean"/><circle cx="39.19112032942507" cy="53.51394948737578" r="4" class="bean"/><circle cx="149.3886039443435" cy="47.1367014296837" r="4" class="bean"/><circle cx="141.94666347922706" cy="35.97347957783186" r="4" class="bean"/><circle cx="128.55805953488357" cy="36.836778148148156" r="4" class="bean"/><circle cx="122.61139605565651" cy="48.863298570316296" r="4" class="bean"/><circle cx="130.05333652077294" cy="60.02652042216814" r="4" class="bean"/><circle cx="143.44194046511643" cy="59.163221851851844" r="4" class="bean"/><circle cx="231.429081817904" cy="40.733037543588935" r="4" class="bean"/><circle cx="216.73303754358895" cy="40.57091818209598" r="4" class="bean"/><circle cx="216.57091818209597" cy="55.266962456411065" r="4" class="bean"/><circle cx="231.26696245641105" cy="55.42908181790402" r="4" class="bean"/><circle cx="312.0" cy="48.0" r="4" class="bean"/><circle cx="405.8981457441494" cy="49.1008527516304" r="4" class="bean"/><circle cx="394.1018542558506" cy="46.8991472483696" r="4" class="bean"/><circle cx="490.0832263950895" cy="39.774419911835864" r="4" class="bean"/><circle cx="479.83482548524165" cy="50.308663064100266" r="4" class="bean"/><circle cx="494.0819481196688" cy="53.91691702406387" r="4" class="bean"/><circle cx="55.04512671651412" cy="131.27070940327633" r="4" class="bean"/><circle cx="40.38175084310137" cy="132.26338658898015" r="4" class="bean"/><circle cx="48.57312244038451" cy="144.46590400774352" r="4" class="bean"/><circle cx="143.8744129130344" cy="132.83873106568942" r="4" class="bean"/><circle cx="129.32505433817528" cy="130.76119284457928" r="4" class="bean"/><circle cx="134.80053274879032" cy="144.4000760897313" r="4" class="bean"/><circle cx="227.55683597151048" cy="143.70382488584528" r="4" class="bean"/><circle cx="228.8932900716935" cy="129.06777724865498" r="4" class="bean"/><circle cx="215.54987395679598" cy="135.22839786549974" r="4" class="bean"/><circle cx="321.2900529561197" cy="128.40428304420897" r="4" class="bean"/><circle cx="307.6468281353456" cy="124.81742897555392" r="4" class="bean"/><circle cx="300.0195388726541" cy="136.68450798107364" r="4" class="bean"/><circle cx="308.9488396870578" cy="147.60562022232014" r="4" class="bean"/><circle cx="322.0947403488229" cy="142.48815977684333" r="4" class="bean"/><circle cx="400.6732864905225" cy="130.0378958997951" r="4" class="bean"/><circle cx="399.3267135094775" cy="141.9621041002049" r="4" class="bean"/><circle cx="488.69666883898196" cy="130.0405828700458" r="4" class="bean"/><circle cx="487.30333116101804" cy="141.9594171299542" r="4" class="bean"/>
    </svg>