<svg xmlns="http://www.w3.org/2000/svg" xmlns:xlink="http://www.w3.org/1999/xlink" width="535" height="180">
  <style>
    circle {
      fill: none;
      stroke: #000;
      stroke-width: 2;
    }
    text {
      font-size: 1.5em;
    }
  </style>

  <circle cx="48.0" cy="48.0" r="40"/><text x="40.0" y="56.0">6'</text><circle cx="136.0" cy="48.0" r="40"/><text x="128.0" y="56.0">5'</text><circle cx="224.0" cy="48.0" r="40"/><text x="216.0" y="56.0">4'</text><circle cx="312.0" cy="48.0" r="40"/><text x="304.0" y="56.0">3'</text><circle cx="400.0" cy="48.0" r="40"/><text x="392.0" y="56.0">2'</text><circle cx="488.0" cy="48.0" r="40"/><text x="480.0" y="56.0">1'</text><circle cx="48.0" cy="136.0" r="40"/><text x="40.0" y="144.0">1</text><circle cx="136.0" cy="136.0" r="40"/><text x="128.0" y="144.0">2</text><circle cx="224.0" cy="136.0" r="40"/><text x="216.0" y="144.0">3</text><circle cx="312.0" cy="136.0" r="40"/><text x="304.0" y="144.0">4</text><circle cx="400.0" cy="136.0" r="40"/><text x="392.0" y="144.0">5</text><circle cx="488.0" cy="136.0" r="40"/><text x="480.0" y="144.0">6</text>
  
</svg>