<?xml version="1.0" encoding="UTF-8" standalone="no"?>
<!DOCTYPE svg PUBLIC "-//W3C//DTD SVG 1.1//EN"
 "http://www.w3.org/Graphics/SVG/1.1/DTD/svg11.dtd">
<!-- Generated by graphviz version 2.44.0 (0)
 -->
<!-- Pages: 1 -->
<svg width="422pt" height="266pt"
 viewBox="0.00 0.00 422.00 265.60" xmlns="http://www.w3.org/2000/svg" xmlns:xlink="http://www.w3.org/1999/xlink">
<g id="graph0" class="graph" transform="scale(1 1) rotate(0) translate(4 261.6)">
<polygon fill="white" stroke="transparent" points="-4,4 -4,-261.6 418,-261.6 418,4 -4,4"/>
<!-- 1 -->
<g id="node1" class="node">
<title>1</title>
<ellipse fill="none" stroke="black" cx="206" cy="-239.6" rx="18" ry="18"/>
<text text-anchor="middle" x="206" y="-235.9" font-family="Times-Roman" font-size="14.00">1</text>
</g>
<!-- 2 -->
<g id="node2" class="node">
<title>2</title>
<ellipse fill="none" stroke="black" cx="99" cy="-167.6" rx="18" ry="18"/>
<text text-anchor="middle" x="99" y="-163.9" font-family="Times-Roman" font-size="14.00">2</text>
</g>
<!-- 1&#45;&gt;2 -->
<g id="edge1" class="edge">
<title>1&#45;&gt;2</title>
<path fill="none" stroke="black" d="M191.12,-228.86C173.31,-217.21 143.28,-197.57 122.37,-183.88"/>
<polygon fill="black" stroke="black" points="124.04,-180.79 113.75,-178.25 120.2,-186.65 124.04,-180.79"/>
</g>
<!-- 3 -->
<g id="node3" class="node">
<title>3</title>
<ellipse fill="none" stroke="black" cx="206" cy="-167.6" rx="18" ry="18"/>
<text text-anchor="middle" x="206" y="-163.9" font-family="Times-Roman" font-size="14.00">3</text>
</g>
<!-- 1&#45;&gt;3 -->
<g id="edge2" class="edge">
<title>1&#45;&gt;3</title>
<path fill="none" stroke="black" d="M206,-221.29C206,-213.58 206,-204.31 206,-195.71"/>
<polygon fill="black" stroke="black" points="209.5,-195.7 206,-185.7 202.5,-195.7 209.5,-195.7"/>
</g>
<!-- 4 -->
<g id="node4" class="node">
<title>4</title>
<ellipse fill="none" stroke="black" cx="315" cy="-167.6" rx="18" ry="18"/>
<text text-anchor="middle" x="315" y="-163.9" font-family="Times-Roman" font-size="14.00">4</text>
</g>
<!-- 1&#45;&gt;4 -->
<g id="edge3" class="edge">
<title>1&#45;&gt;4</title>
<path fill="none" stroke="black" d="M220.7,-229.16C238.9,-217.47 270.13,-197.41 291.63,-183.6"/>
<polygon fill="black" stroke="black" points="293.66,-186.46 300.18,-178.11 289.88,-180.57 293.66,-186.46"/>
</g>
<!-- 5 -->
<g id="node5" class="node">
<title>5</title>
<ellipse fill="none" stroke="black" cx="36" cy="-92.8" rx="18" ry="18"/>
<text text-anchor="middle" x="36" y="-89.1" font-family="Times-Roman" font-size="14.00">5</text>
</g>
<!-- 2&#45;&gt;5 -->
<g id="edge4" class="edge">
<title>2&#45;&gt;5</title>
<path fill="none" stroke="black" d="M87.44,-153.24C78.12,-142.47 64.83,-127.12 54.1,-114.71"/>
<polygon fill="black" stroke="black" points="56.67,-112.34 47.48,-107.07 51.38,-116.92 56.67,-112.34"/>
</g>
<!-- 6 -->
<g id="node6" class="node">
<title>6</title>
<ellipse fill="none" stroke="black" cx="99" cy="-92.8" rx="18" ry="18"/>
<text text-anchor="middle" x="99" y="-89.1" font-family="Times-Roman" font-size="14.00">6</text>
</g>
<!-- 2&#45;&gt;6 -->
<g id="edge5" class="edge">
<title>2&#45;&gt;6</title>
<path fill="none" stroke="black" d="M99,-149.34C99,-140.91 99,-130.57 99,-121.1"/>
<polygon fill="black" stroke="black" points="102.5,-120.93 99,-110.93 95.5,-120.93 102.5,-120.93"/>
</g>
<!-- 7 -->
<g id="node7" class="node">
<title>7</title>
<ellipse fill="none" stroke="black" cx="175" cy="-92.8" rx="18" ry="18"/>
<text text-anchor="middle" x="175" y="-89.1" font-family="Times-Roman" font-size="14.00">7</text>
</g>
<!-- 3&#45;&gt;7 -->
<g id="edge6" class="edge">
<title>3&#45;&gt;7</title>
<path fill="none" stroke="black" d="M199.27,-150.8C195.29,-141.45 190.16,-129.4 185.64,-118.79"/>
<polygon fill="black" stroke="black" points="188.85,-117.39 181.71,-109.56 182.41,-120.14 188.85,-117.39"/>
</g>
<!-- 8 -->
<g id="node8" class="node">
<title>8</title>
<ellipse fill="none" stroke="black" cx="234" cy="-92.8" rx="18" ry="18"/>
<text text-anchor="middle" x="234" y="-89.1" font-family="Times-Roman" font-size="14.00">8</text>
</g>
<!-- 3&#45;&gt;8 -->
<g id="edge7" class="edge">
<title>3&#45;&gt;8</title>
<path fill="none" stroke="black" d="M212.21,-150.44C215.73,-141.3 220.21,-129.66 224.19,-119.31"/>
<polygon fill="black" stroke="black" points="227.48,-120.5 227.8,-109.91 220.95,-117.99 227.48,-120.5"/>
</g>
<!-- 9 -->
<g id="node9" class="node">
<title>9</title>
<ellipse fill="none" stroke="black" cx="315" cy="-92.8" rx="18" ry="18"/>
<text text-anchor="middle" x="315" y="-89.1" font-family="Times-Roman" font-size="14.00">9</text>
</g>
<!-- 4&#45;&gt;9 -->
<g id="edge8" class="edge">
<title>4&#45;&gt;9</title>
<path fill="none" stroke="black" d="M315,-149.34C315,-140.91 315,-130.57 315,-121.1"/>
<polygon fill="black" stroke="black" points="318.5,-120.93 315,-110.93 311.5,-120.93 318.5,-120.93"/>
</g>
<!-- 10 -->
<g id="node10" class="node">
<title>10</title>
<ellipse fill="none" stroke="black" cx="379" cy="-92.8" rx="20.6" ry="20.6"/>
<text text-anchor="middle" x="379" y="-89.1" font-family="Times-Roman" font-size="14.00">10</text>
</g>
<!-- 4&#45;&gt;10 -->
<g id="edge9" class="edge">
<title>4&#45;&gt;10</title>
<path fill="none" stroke="black" d="M326.44,-153.58C335.47,-143.32 348.28,-128.75 358.99,-116.56"/>
<polygon fill="black" stroke="black" points="361.69,-118.79 365.67,-108.97 356.43,-114.17 361.69,-118.79"/>
</g>
<!-- res_0 -->
<g id="node11" class="node">
<title>res_0</title>
<text text-anchor="middle" x="27" y="-14.3" font-family="Times-Roman" font-size="14.00">1</text>
</g>
<!-- 5&#45;&gt;res_0 -->
<!-- res_1 -->
<g id="node12" class="node">
<title>res_1</title>
<text text-anchor="middle" x="99" y="-14.3" font-family="Times-Roman" font-size="14.00">&#45;1</text>
</g>
<!-- 6&#45;&gt;res_1 -->
<!-- res_2 -->
<g id="node13" class="node">
<title>res_2</title>
<text text-anchor="middle" x="171" y="-14.3" font-family="Times-Roman" font-size="14.00">1</text>
</g>
<!-- 7&#45;&gt;res_2 -->
<!-- res_3 -->
<g id="node14" class="node">
<title>res_3</title>
<text text-anchor="middle" x="243" y="-14.3" font-family="Times-Roman" font-size="14.00">&#45;1</text>
</g>
<!-- 8&#45;&gt;res_3 -->
<!-- res_4 -->
<g id="node15" class="node">
<title>res_4</title>
<text text-anchor="middle" x="315" y="-14.3" font-family="Times-Roman" font-size="14.00">1</text>
</g>
<!-- 9&#45;&gt;res_4 -->
<!-- res_5 -->
<g id="node16" class="node">
<title>res_5</title>
<text text-anchor="middle" x="387" y="-14.3" font-family="Times-Roman" font-size="14.00">&#45;1</text>
</g>
<!-- 10&#45;&gt;res_5 -->
</g>
</svg>
