
    <svg xmlns="http://www.w3.org/2000/svg" xmlns:xlink="http://www.w3.org/1999/xlink" width="535" height="180">
      <style>
        circle {
          fill: none;
          stroke: #000;
          stroke-width: 2;
        }
        .bean {
          fill: #000
        }
        .highlight {
          stroke: red;
        }
      </style>

      <circle cx="48.0" cy="48.0" r="40" /><text x="82.0" y="82.0" >4</text><circle cx="136.0" cy="48.0" r="40" /><text x="170.0" y="82.0" >4</text><circle cx="224.0" cy="48.0" r="40" /><text x="258.0" y="82.0" >4</text><circle cx="312.0" cy="48.0" r="40" /><text x="346.0" y="82.0" >5</text><circle cx="400.0" cy="48.0" r="40" /><text x="434.0" y="82.0" >5</text><circle cx="488.0" cy="48.0" r="40" /><text x="522.0" y="82.0" >5</text><circle cx="48.0" cy="136.0" r="40" /><text x="82.0" y="170.0" >4</text><circle cx="136.0" cy="136.0" r="40" /><text x="170.0" y="170.0" >4</text><circle cx="224.0" cy="136.0" r="40" /><text x="258.0" y="170.0" >4</text><circle cx="312.0" cy="136.0" r="40" /><text x="346.0" y="170.0" >4</text><circle cx="400.0" cy="136.0" r="40" /><text x="434.0" y="170.0" >0</text><circle cx="488.0" cy="136.0" r="40" /><text x="522.0" y="170.0" >5</text>
      <circle cx="53.04026716281911" cy="57.088218028161926" r="4" class="bean"/><circle cx="57.088218028161926" cy="42.959732837180894" r="4" class="bean"/><circle cx="42.959732837180894" cy="38.911781971838074" r="4" class="bean"/><circle cx="38.911781971838074" cy="53.040267162819106" r="4" class="bean"/><circle cx="144.82329329078402" cy="42.50914437407013" r="4" class="bean"/><circle cx="130.50914437407013" cy="39.17670670921598" r="4" class="bean"/><circle cx="127.17670670921598" cy="53.49085562592987" r="4" class="bean"/><circle cx="141.49085562592987" cy="56.82329329078402" r="4" class="bean"/><circle cx="232.1816496160764" cy="54.40785530109387" r="4" class="bean"/><circle cx="230.40785530109386" cy="39.818350383923594" r="4" class="bean"/><circle cx="215.8183503839236" cy="41.59214469890613" r="4" class="bean"/><circle cx="217.59214469890614" cy="56.181649616076406" r="4" class="bean"/><circle cx="313.86564476226886" cy="36.14591337887989" r="4" class="bean"/><circle cx="301.3026096112642" cy="42.56255217303346" r="4" class="bean"/><circle cx="303.52300438656596" cy="56.49355905200053" r="4" class="bean"/><circle cx="317.4583189771498" cy="58.686756006557204" r="4" class="bean"/><circle cx="323.8504222627512" cy="46.11121938952893" r="4" class="bean"/><circle cx="411.395808884639" cy="51.75972603586798" r="4" class="bean"/><circle cx="407.09721055589927" cy="38.32376094108706" r="4" class="bean"/><circle cx="392.9905084642213" cy="38.26002934245453" r="4" class="bean"/><circle cx="388.57068543113485" cy="51.65660614312318" r="4" class="bean"/><circle cx="399.94578666410564" cy="59.999877537467256" r="4" class="bean"/><circle cx="499.97125737033366" cy="47.16994158444599" r="4" class="bean"/><circle cx="490.9098895064512" cy="36.358155512967656" r="4" class="bean"/><circle cx="477.82715324815985" cy="41.63500283082744" r="4" class="bean"/><circle cx="478.80294543856763" cy="55.70805989818683" r="4" class="bean"/><circle cx="492.48875443648774" cy="59.12884017357208" r="4" class="bean"/><circle cx="56.45517424060568" cy="129.95764710059083" r="4" class="bean"/><circle cx="41.95764710059085" cy="127.54482575939433" r="4" class="bean"/><circle cx="39.54482575939432" cy="142.04235289940917" r="4" class="bean"/><circle cx="54.04235289940915" cy="144.4551742406057" r="4" class="bean"/><circle cx="139.96611348553515" cy="145.6057245338317" r="4" class="bean"/><circle cx="145.6057245338317" cy="132.03388651446485" r="4" class="bean"/><circle cx="132.03388651446485" cy="126.3942754661683" r="4" class="bean"/><circle cx="126.3942754661683" cy="139.96611348553515" r="4" class="bean"/><circle cx="234.13812102038685" cy="133.71559588163777" r="4" class="bean"/><circle cx="221.71559588163777" cy="125.86187897961315" r="4" class="bean"/><circle cx="213.86187897961315" cy="138.28440411836223" r="4" class="bean"/><circle cx="226.2844041183622" cy="146.13812102038685" r="4" class="bean"/><circle cx="320.8589079531736" cy="130.56679193503535" r="4" class="bean"/><circle cx="306.5667919350353" cy="127.14109204682636" r="4" class="bean"/><circle cx="303.1410920468264" cy="141.43320806496465" r="4" class="bean"/><circle cx="317.4332080649647" cy="144.85890795317363" r="4" class="bean"/><circle cx="496.1175292597307" cy="127.16225601652687" r="4" class="bean"/><circle cx="482.10326048876226" cy="125.54875781848838" r="4" class="bean"/><circle cx="476.2380852995199" cy="138.37852109064235" r="4" class="bean"/><circle cx="486.627476453564" cy="147.92124905848706" r="4" class="bean"/><circle cx="498.9136484984231" cy="140.98921601585533" r="4" class="bean"/>
    </svg>
    