<svg xmlns="http://www.w3.org/2000/svg" xmlns:xlink="http://www.w3.org/1999/xlink" width="535" height="180">
      <style>
        circle {
          fill: none;
          stroke: #000;
          stroke-width: 2;
        }
        .bean {
          fill: #000
        }
        .highlight {
          stroke: red;
        }
      </style>

      <circle cx="48.0" cy="48.0" r="40"/><text x="82.0" y="82.0">4</text><circle cx="136.0" cy="48.0" r="40"/><text x="170.0" y="82.0">6</text><circle cx="224.0" cy="48.0" r="40"/><text x="258.0" y="82.0">4</text><circle cx="312.0" cy="48.0" r="40" class="highlight"/><text x="346.0" y="82.0">2</text><circle cx="400.0" cy="48.0" r="40" class="highlight"/><text x="434.0" y="82.0">3</text><circle cx="488.0" cy="48.0" r="40"/><text x="522.0" y="82.0">4</text><circle cx="48.0" cy="136.0" r="40"/><text x="82.0" y="170.0">3</text><circle cx="136.0" cy="136.0" r="40"/><text x="170.0" y="170.0">3</text><circle cx="224.0" cy="136.0" r="40"/><text x="258.0" y="170.0">3</text><circle cx="312.0" cy="136.0" r="40"/><text x="346.0" y="170.0">0</text><circle cx="400.0" cy="136.0" r="40"/><text x="434.0" y="170.0">3</text><circle cx="488.0" cy="136.0" r="40"/><text x="522.0" y="170.0">3</text>
      <circle cx="54.87394312131134" cy="55.794158451364495" r="4" class="bean"/><circle cx="55.794158451364495" cy="41.126056878688665" r="4" class="bean"/><circle cx="41.126056878688665" cy="40.205841548635505" r="4" class="bean"/><circle cx="40.205841548635505" cy="54.87394312131134" r="4" class="bean"/><circle cx="144.84545145169938" cy="37.912483525880646" r="4" class="bean"/><circle cx="131.6866801981683" cy="35.29585609782672" r="4" class="bean"/><circle cx="122.84122874646891" cy="45.38337257194607" r="4" class="bean"/><circle cx="127.15454854830061" cy="58.087516474119354" r="4" class="bean"/><circle cx="140.3133198018317" cy="60.70414390217328" r="4" class="bean"/><circle cx="149.15877125353109" cy="50.61662742805392" r="4" class="bean"/><circle cx="226.07432386001375" cy="37.816818742466694" r="4" class="bean"/><circle cx="213.8168187424667" cy="45.92567613998624" r="4" class="bean"/><circle cx="221.92567613998625" cy="58.183181257533306" r="4" class="bean"/><circle cx="234.1831812575333" cy="50.07432386001376" r="4" class="bean"/><circle cx="316.0172573493925" cy="52.45664037013894" r="4" class="bean"/><circle cx="307.9827426506075" cy="43.54335962986105" r="4" class="bean"/><circle cx="408.4757260893118" cy="47.5974242196065" r="4" class="bean"/><circle cx="395.413496102575" cy="40.861093781334205" r="4" class="bean"/><circle cx="396.1107778081132" cy="55.54148199905929" r="4" class="bean"/><circle cx="494.06461216235084" cy="39.56077732724948" r="4" class="bean"/><circle cx="479.56077732724947" cy="41.93538783764917" r="4" class="bean"/><circle cx="481.93538783764916" cy="56.43922267275052" r="4" class="bean"/><circle cx="496.43922267275053" cy="54.064612162350834" r="4" class="bean"/><circle cx="56.170993818435875" cy="133.71201835254678" r="4" class="bean"/><circle cx="41.933052860695" cy="130.06770260279552" r="4" class="bean"/><circle cx="45.89595332086912" cy="144.2202790446577" r="4" class="bean"/><circle cx="142.54457543266946" cy="141.40078997981772" r="4" class="bean"/><circle cx="137.40493360669186" cy="127.63183642841587" r="4" class="bean"/><circle cx="128.05049096063868" cy="138.9673735917664" r="4" class="bean"/><circle cx="231.35807660564498" cy="131.77404346148" r="4" class="bean"/><circle cx="216.66117597953024" cy="131.74069700577945" r="4" class="bean"/><circle cx="223.98074741482478" cy="144.48525953274054" r="4" class="bean"/><circle cx="408.14998783991155" cy="133.63828490090492" r="4" class="bean"/><circle cx="393.8797008077266" cy="130.12276103964984" r="4" class="bean"/><circle cx="397.9703113523618" cy="144.2389540594452" r="4" class="bean"/><circle cx="489.52958717310196" cy="144.34627839697922" r="4" class="bean"/><circle cx="494.46329553229026" cy="130.50219945230126" r="4" class="bean"/><circle cx="480.0071172946078" cy="133.15152215071953" r="4" class="bean"/>
    </svg>