
    <svg xmlns="http://www.w3.org/2000/svg" xmlns:xlink="http://www.w3.org/1999/xlink" width="535" height="180">
      <style>
        circle {
          fill: none;
          stroke: #000;
          stroke-width: 2;
        }
        .bean {
          fill: #000
        }
        .highlight {
          stroke: red;
        }
      </style>

      <circle cx="48.0" cy="48.0" r="40" /><text x="82.0" y="82.0" >4</text><circle cx="136.0" cy="48.0" r="40" /><text x="170.0" y="82.0" >4</text><circle cx="224.0" cy="48.0" r="40" /><text x="258.0" y="82.0" >4</text><circle cx="312.0" cy="48.0" r="40" /><text x="346.0" y="82.0" >5</text><circle cx="400.0" cy="48.0" r="40" /><text x="434.0" y="82.0" >5</text><circle cx="488.0" cy="48.0" r="40" /><text x="522.0" y="82.0" >5</text><circle cx="48.0" cy="136.0" r="40" /><text x="82.0" y="170.0" >4</text><circle cx="136.0" cy="136.0" r="40" /><text x="170.0" y="170.0" >4</text><circle cx="224.0" cy="136.0" r="40" /><text x="258.0" y="170.0" >4</text><circle cx="312.0" cy="136.0" r="40" /><text x="346.0" y="170.0" >4</text><circle cx="400.0" cy="136.0" r="40" /><text x="434.0" y="170.0" >0</text><circle cx="488.0" cy="136.0" r="40" /><text x="522.0" y="170.0" >5</text>
      <circle cx="53.64726048609735" cy="56.7240156466024" r="4" class="bean"/><circle cx="56.7240156466024" cy="42.35273951390265" r="4" class="bean"/><circle cx="42.35273951390265" cy="39.2759843533976" r="4" class="bean"/><circle cx="39.2759843533976" cy="53.647260486097345" r="4" class="bean"/><circle cx="145.9096084028529" cy="44.869558928504304" r="4" class="bean"/><circle cx="132.86955892850432" cy="38.0903915971471" r="4" class="bean"/><circle cx="126.09039159714709" cy="51.130441071495696" r="4" class="bean"/><circle cx="139.13044107149568" cy="57.9096084028529" r="4" class="bean"/><circle cx="233.72750662833903" cy="44.342731238257116" r="4" class="bean"/><circle cx="220.3427312382571" cy="38.27249337166097" r="4" class="bean"/><circle cx="214.27249337166097" cy="51.657268761742884" r="4" class="bean"/><circle cx="227.6572687617429" cy="57.72750662833903" r="4" class="bean"/><circle cx="312.48778051393367" cy="59.99008215861036" r="4" class="bean"/><circle cx="323.5539782361911" cy="51.24123231466406" r="4" class="bean"/><circle cx="318.652970741309" cy="38.013109577286514" r="4" class="bean"/><circle cx="304.5577838080965" cy="38.586529962178204" r="4" class="bean"/><circle cx="300.7474867004698" cy="52.16904598726085" r="4" class="bean"/><circle cx="403.3108555321679" cy="36.46577979900189" r="4" class="bean"/><circle cx="390.05341534281774" cy="41.286919212648584" r="4" class="bean"/><circle cx="390.5418170777152" cy="55.38530810519103" r="4" class="bean"/><circle cx="404.10110613939645" cy="59.277452213749555" r="4" class="bean"/><circle cx="411.99280590790266" cy="47.584540669408945" r="4" class="bean"/><circle cx="496.5233486462443" cy="56.44704255077277" r="4" class="bean"/><circle cx="498.66747444200706" cy="42.504093429730986" r="4" class="bean"/><circle cx="486.0695131330369" cy="36.15630038980712" r="4" class="bean"/><circle cx="476.13941905937446" cy="46.17609765862593" r="4" class="bean"/><circle cx="482.6002447193373" cy="58.71646597106319" r="4" class="bean"/><circle cx="57.18637664477393" cy="131.1409379361494" r="4" class="bean"/><circle cx="43.140937936149406" cy="126.81362335522607" r="4" class="bean"/><circle cx="38.81362335522606" cy="140.8590620638506" r="4" class="bean"/><circle cx="52.859062063850594" cy="145.18637664477393" r="4" class="bean"/><circle cx="145.53069841415055" cy="140.14316156316744" r="4" class="bean"/><circle cx="140.14316156316744" cy="126.46930158584944" r="4" class="bean"/><circle cx="126.46930158584945" cy="131.85683843683256" r="4" class="bean"/><circle cx="131.85683843683256" cy="145.53069841415055" r="4" class="bean"/><circle cx="224.84880277004524" cy="146.35758339853285" r="4" class="bean"/><circle cx="234.35758339853285" cy="135.15119722995476" r="4" class="bean"/><circle cx="223.15119722995476" cy="125.64241660146713" r="4" class="bean"/><circle cx="213.64241660146715" cy="136.84880277004524" r="4" class="bean"/><circle cx="312.30582938089105" cy="146.38780382899984" r="4" class="bean"/><circle cx="322.38780382899984" cy="135.69417061910895" r="4" class="bean"/><circle cx="311.69417061910895" cy="125.61219617100016" r="4" class="bean"/><circle cx="301.61219617100016" cy="136.30582938089103" r="4" class="bean"/><circle cx="488.44037985628734" cy="147.99191667675257" r="4" class="bean"/><circle cx="499.5410753578672" cy="139.2868799162777" r="4" class="bean"/><circle cx="494.6923969815985" cy="126.03948682844646" r="4" class="bean"/><circle cx="480.5950534429678" cy="126.5571843983112" r="4" class="bean"/><circle cx="476.73109436127913" cy="140.12453218021207" r="4" class="bean"/>
    </svg>
    