<svg xmlns="http://www.w3.org/2000/svg" xmlns:xlink="http://www.w3.org/1999/xlink" width="397" height="140">
  <style>
    circle {
      fill: none;
      stroke: #000;
      stroke-width: 2;
    }
    text {
      font-size: 1.5em;
    }
  </style>

  <circle cx="36.0" cy="36.0" r="30"/><text x="30.0" y="42.0">6'</text><circle cx="102.0" cy="36.0" r="30"/><text x="96.0" y="42.0">5'</text><circle cx="168.0" cy="36.0" r="30"/><text x="162.0" y="42.0">4'</text><circle cx="234.0" cy="36.0" r="30"/><text x="228.0" y="42.0">3'</text><circle cx="300.0" cy="36.0" r="30"/><text x="294.0" y="42.0">2'</text><circle cx="366.0" cy="36.0" r="30"/><text x="360.0" y="42.0">1'</text><circle cx="36.0" cy="102.0" r="30"/><text x="30.0" y="108.0">1</text><circle cx="102.0" cy="102.0" r="30"/><text x="96.0" y="108.0">2</text><circle cx="168.0" cy="102.0" r="30"/><text x="162.0" y="108.0">3</text><circle cx="234.0" cy="102.0" r="30"/><text x="228.0" y="108.0">4</text><circle cx="300.0" cy="102.0" r="30"/><text x="294.0" y="108.0">5</text><circle cx="366.0" cy="102.0" r="30"/><text x="360.0" y="108.0">6</text>
  
</svg>