<svg xmlns="http://www.w3.org/2000/svg" xmlns:xlink="http://www.w3.org/1999/xlink" width="535" height="180">
      <style>
        circle {
          fill: none;
          stroke: #000;
          stroke-width: 2;
        }
        .bean {
          fill: #000
        }
        .highlight {
          stroke: red;
        }
      </style>

      <circle cx="48.0" cy="48.0" r="40"/><text x="82.0" y="82.0">4</text><circle cx="136.0" cy="48.0" r="40"/><text x="170.0" y="82.0">6</text><circle cx="224.0" cy="48.0" r="40"/><text x="258.0" y="82.0">4</text><circle cx="312.0" cy="48.0" r="40"/><text x="346.0" y="82.0">1</text><circle cx="400.0" cy="48.0" r="40"/><text x="434.0" y="82.0">2</text><circle cx="488.0" cy="48.0" r="40"/><text x="522.0" y="82.0">3</text><circle cx="48.0" cy="136.0" r="40"/><text x="82.0" y="170.0">3</text><circle cx="136.0" cy="136.0" r="40"/><text x="170.0" y="170.0">3</text><circle cx="224.0" cy="136.0" r="40"/><text x="258.0" y="170.0">3</text><circle cx="312.0" cy="136.0" r="40" class="highlight"/><text x="346.0" y="170.0">5</text><circle cx="400.0" cy="136.0" r="40"/><text x="434.0" y="170.0">2</text><circle cx="488.0" cy="136.0" r="40"/><text x="522.0" y="170.0">2</text>
      <circle cx="55.20066266717835" cy="55.49336087169862" r="4" class="bean"/><circle cx="55.49336087169863" cy="40.79933733282165" r="4" class="bean"/><circle cx="40.79933733282165" cy="40.50663912830137" r="4" class="bean"/><circle cx="40.50663912830138" cy="55.20066266717836" r="4" class="bean"/><circle cx="143.14275956365765" cy="59.35697960796695" r="4" class="bean"/><circle cx="149.40681263259003" cy="47.492678568731684" r="4" class="bean"/><circle cx="142.26405306893238" cy="36.13569896076474" r="4" class="bean"/><circle cx="128.85724043634235" cy="36.64302039203305" r="4" class="bean"/><circle cx="122.59318736740997" cy="48.50732143126831" r="4" class="bean"/><circle cx="129.73594693106762" cy="59.864301039235265" r="4" class="bean"/><circle cx="233.1232119791061" cy="52.976645776453786" r="4" class="bean"/><circle cx="228.97664577645378" cy="38.87678802089392" r="4" class="bean"/><circle cx="214.8767880208939" cy="43.02335422354621" r="4" class="bean"/><circle cx="219.02335422354622" cy="57.12321197910608" r="4" class="bean"/><circle cx="312.0" cy="48.0" r="4" class="bean"/><circle cx="403.80436380039663" cy="52.63969999830073" r="4" class="bean"/><circle cx="396.19563619960337" cy="43.36030000169927" r="4" class="bean"/><circle cx="493.6312627922533" cy="41.652647846181566" r="4" class="bean"/><circle cx="479.6874003919007" cy="46.296859443431764" r="4" class="bean"/><circle cx="490.681336815846" cy="56.05049271038667" r="4" class="bean"/><circle cx="52.43385454533432" cy="128.76529655958046" r="4" class="bean"/><circle cx="39.51763575908285" cy="135.77752104726514" r="4" class="bean"/><circle cx="52.04850969558283" cy="143.4571823931544" r="4" class="bean"/><circle cx="142.48757159932057" cy="141.46913290601802" r="4" class="bean"/><circle cx="137.49262223362473" cy="127.64703173310893" r="4" class="bean"/><circle cx="128.0198061670547" cy="138.88383536087304" r="4" class="bean"/><circle cx="230.4757477217844" cy="141.48312788869677" r="4" class="bean"/><circle cx="225.51065418291816" cy="127.65027402008712" r="4" class="bean"/><circle cx="216.01359809529748" cy="138.8665980912161" r="4" class="bean"/><circle cx="312.74593474139357" cy="147.97679345073556" r="4" class="bean"/><circle cx="323.62111396742847" cy="138.99160661786254" r="4" class="bean"/><circle cx="318.43630867761334" cy="125.87212112007262" r="4" class="bean"/><circle cx="304.3567435574225" cy="126.74902000040011" r="4" class="bean"/><circle cx="300.83989905614214" cy="140.41045881092916" r="4" class="bean"/><circle cx="404.42849081772613" cy="140.0482674167248" r="4" class="bean"/><circle cx="395.57150918227387" cy="131.9517325832752" r="4" class="bean"/><circle cx="490.29854402239755" cy="141.54226446293396" r="4" class="bean"/><circle cx="485.70145597760245" cy="130.45773553706604" r="4" class="bean"/>
    </svg>