<svg xmlns="http://www.w3.org/2000/svg" xmlns:xlink="http://www.w3.org/1999/xlink" width="535" height="180">
      <style>
        circle {
          fill: none;
          stroke: #000;
          stroke-width: 2;
        }
        .bean {
          fill: #000
        }
        .highlight {
          stroke: red;
        }
      </style>

      <circle cx="48.0" cy="48.0" r="40"/><text x="82.0" y="82.0">4</text><circle cx="136.0" cy="48.0" r="40"/><text x="170.0" y="82.0">6</text><circle cx="224.0" cy="48.0" r="40"/><text x="258.0" y="82.0">4</text><circle cx="312.0" cy="48.0" r="40" class="highlight"/><text x="346.0" y="82.0">2</text><circle cx="400.0" cy="48.0" r="40" class="highlight"/><text x="434.0" y="82.0">3</text><circle cx="488.0" cy="48.0" r="40"/><text x="522.0" y="82.0">4</text><circle cx="48.0" cy="136.0" r="40"/><text x="82.0" y="170.0">3</text><circle cx="136.0" cy="136.0" r="40"/><text x="170.0" y="170.0">3</text><circle cx="224.0" cy="136.0" r="40"/><text x="258.0" y="170.0">3</text><circle cx="312.0" cy="136.0" r="40"/><text x="346.0" y="170.0">0</text><circle cx="400.0" cy="136.0" r="40"/><text x="434.0" y="170.0">3</text><circle cx="488.0" cy="136.0" r="40"/><text x="522.0" y="170.0">3</text>
      <circle cx="56.84859092227459" cy="42.55000562475155" r="4" class="bean"/><circle cx="42.55000562475155" cy="39.15140907772541" r="4" class="bean"/><circle cx="39.15140907772541" cy="53.44999437524845" r="4" class="bean"/><circle cx="53.44999437524845" cy="56.84859092227459" r="4" class="bean"/><circle cx="137.48601968489243" cy="34.66614288751705" r="4" class="bean"/><circle cx="125.19555085260416" cy="40.04614064611793" r="4" class="bean"/><circle cx="123.70953116771172" cy="53.37999775860087" r="4" class="bean"/><circle cx="134.51398031510757" cy="61.33385711248295" r="4" class="bean"/><circle cx="146.80444914739584" cy="55.95385935388207" r="4" class="bean"/><circle cx="148.29046883228827" cy="42.62000224139913" r="4" class="bean"/><circle cx="230.86625502506698" cy="55.800932119352304" r="4" class="bean"/><circle cx="231.8009321193523" cy="41.133744974933016" r="4" class="bean"/><circle cx="217.13374497493302" cy="40.199067880647696" r="4" class="bean"/><circle cx="216.1990678806477" cy="54.866255025066984" r="4" class="bean"/><circle cx="312.6800085880176" cy="42.03865884886443" r="4" class="bean"/><circle cx="311.3199914119824" cy="53.96134115113557" r="4" class="bean"/><circle cx="406.8239280280356" cy="53.043213882851944" r="4" class="bean"/><circle cx="400.95558732525035" cy="39.56869803269858" r="4" class="bean"/><circle cx="392.22048464671406" cy="51.38808808444947" r="4" class="bean"/><circle cx="498.36624049316936" cy="48.73556647407039" r="4" class="bean"/><circle cx="488.73556647407037" cy="37.633759506830664" r="4" class="bean"/><circle cx="477.63375950683064" cy="47.264433525929604" r="4" class="bean"/><circle cx="487.26443352592963" cy="58.366240493169336" r="4" class="bean"/><circle cx="56.23401959688793" cy="138.04961490970024" r="4" class="bean"/><circle cx="45.65800878133179" cy="127.84432239898602" r="4" class="bean"/><circle cx="42.10797162178028" cy="142.10606269131372" r="4" class="bean"/><circle cx="143.51046082145797" cy="139.94879453116326" r="4" class="bean"/><circle cx="135.66452596758347" cy="127.52135286890802" r="4" class="bean"/><circle cx="128.82501321095856" cy="140.52985259992872" r="4" class="bean"/><circle cx="228.12800399076218" cy="143.41347307624784" r="4" class="bean"/><circle cx="228.3562540189215" cy="128.7183071389525" r="4" class="bean"/><circle cx="215.51574199031631" cy="135.8682197847997" r="4" class="bean"/><circle cx="408.4815821728831" cy="136.2505271335221" r="4" class="bean"/><circle cx="395.97617177552587" cy="128.52947080723692" r="4" class="bean"/><circle cx="395.542246051591" cy="143.22000205924098" r="4" class="bean"/><circle cx="494.3865667849703" cy="141.58674902793337" r="4" class="bean"/><circle cx="489.6449831902732" cy="127.67569640728314" r="4" class="bean"/><circle cx="479.9684500247565" cy="138.7375545647835" r="4" class="bean"/>
    </svg>