<?xml version="1.0" encoding="UTF-8" standalone="no"?>
<!DOCTYPE svg PUBLIC "-//W3C//DTD SVG 1.1//EN"
 "http://www.w3.org/Graphics/SVG/1.1/DTD/svg11.dtd">
<!-- Generated by graphviz version 2.44.0 (0)
 -->
<!-- Pages: 1 -->
<svg width="134pt" height="218pt"
 viewBox="0.00 0.00 134.00 218.00" xmlns="http://www.w3.org/2000/svg" xmlns:xlink="http://www.w3.org/1999/xlink">
<g id="graph0" class="graph" transform="scale(1 1) rotate(0) translate(4 214)">
<polygon fill="white" stroke="transparent" points="-4,4 -4,-214 130,-214 130,4 -4,4"/>
<!-- S -->
<g id="node1" class="node">
<title>S</title>
<ellipse fill="none" stroke="black" cx="58" cy="-192" rx="18" ry="18"/>
<text text-anchor="middle" x="58" y="-188.3" font-family="Times-Roman" font-size="14.00">S</text>
</g>
<!-- N1 -->
<g id="node2" class="node">
<title>N1</title>
<ellipse fill="none" stroke="black" cx="32" cy="-105" rx="18" ry="18"/>
<text text-anchor="middle" x="32" y="-101.3" font-family="Times-Roman" font-size="14.00">N</text>
</g>
<!-- S&#45;&gt;N1 -->
<g id="edge1" class="edge">
<title>S&#45;&gt;N1</title>
<path fill="none" stroke="black" d="M52.99,-174.61C49.32,-162.62 44.26,-146.09 40.03,-132.27"/>
<polygon fill="black" stroke="black" points="43.27,-130.88 37,-122.34 36.58,-132.92 43.27,-130.88"/>
<text text-anchor="middle" x="51" y="-144.8" font-family="Times-Roman" font-size="14.00">2</text>
</g>
<!-- N2 -->
<g id="node3" class="node">
<title>N2</title>
<ellipse fill="none" stroke="black" cx="95" cy="-105" rx="18" ry="18"/>
<text text-anchor="middle" x="95" y="-101.3" font-family="Times-Roman" font-size="14.00">N</text>
</g>
<!-- S&#45;&gt;N2 -->
<g id="edge2" class="edge">
<title>S&#45;&gt;N2</title>
<path fill="none" stroke="black" d="M64.96,-175.01C70.33,-162.66 77.87,-145.35 84.05,-131.15"/>
<polygon fill="black" stroke="black" points="87.29,-132.48 88.07,-121.92 80.87,-129.69 87.29,-132.48"/>
<text text-anchor="middle" x="82" y="-144.8" font-family="Times-Roman" font-size="14.00">4</text>
</g>
<!-- 0 -->
<g id="node4" class="node">
<title>0</title>
<text text-anchor="middle" x="27" y="-14.3" font-family="Times-Roman" font-size="14.00">0</text>
</g>
<!-- N1&#45;&gt;0 -->
<g id="edge3" class="edge">
<title>N1&#45;&gt;0</title>
<path fill="none" stroke="black" d="M30.99,-86.8C30.3,-75.16 29.39,-59.55 28.6,-46.24"/>
<polygon fill="black" stroke="black" points="32.09,-45.95 28.01,-36.18 25.1,-46.36 32.09,-45.95"/>
<text text-anchor="middle" x="35.5" y="-57.8" font-family="Times-Roman" font-size="14.00">6&#39;</text>
</g>
<!-- &#45;1 -->
<g id="node5" class="node">
<title>&#45;1</title>
<text text-anchor="middle" x="99" y="-14.3" font-family="Times-Roman" font-size="14.00">&#45;1</text>
</g>
<!-- N2&#45;&gt;&#45;1 -->
<g id="edge4" class="edge">
<title>N2&#45;&gt;&#45;1</title>
<path fill="none" stroke="black" d="M95.81,-86.8C96.36,-75.16 97.09,-59.55 97.72,-46.24"/>
<polygon fill="black" stroke="black" points="101.22,-46.33 98.19,-36.18 94.23,-46 101.22,-46.33"/>
<text text-anchor="middle" x="102.5" y="-57.8" font-family="Times-Roman" font-size="14.00">6&#39;</text>
</g>
</g>
</svg>
