<svg xmlns="http://www.w3.org/2000/svg" xmlns:xlink="http://www.w3.org/1999/xlink" width="535" height="180">
      <style>
        circle {
          fill: none;
          stroke: #000;
          stroke-width: 2;
        }
        .bean {
          fill: #000
        }
        .highlight {
          stroke: red;
        }
      </style>

      <circle cx="48.0" cy="48.0" r="40"/><text x="82.0" y="82.0">4</text><circle cx="136.0" cy="48.0" r="40"/><text x="170.0" y="82.0">4</text><circle cx="224.0" cy="48.0" r="40"/><text x="258.0" y="82.0">4</text><circle cx="312.0" cy="48.0" r="40"/><text x="346.0" y="82.0">4</text><circle cx="400.0" cy="48.0" r="40"/><text x="434.0" y="82.0">4</text><circle cx="488.0" cy="48.0" r="40"/><text x="522.0" y="82.0">4</text><circle cx="48.0" cy="136.0" r="40"/><text x="82.0" y="170.0">4</text><circle cx="136.0" cy="136.0" r="40"/><text x="170.0" y="170.0">4</text><circle cx="224.0" cy="136.0" r="40"/><text x="258.0" y="170.0">4</text><circle cx="312.0" cy="136.0" r="40"/><text x="346.0" y="170.0">4</text><circle cx="400.0" cy="136.0" r="40"/><text x="434.0" y="170.0">4</text><circle cx="488.0" cy="136.0" r="40"/><text x="522.0" y="170.0">4</text>
      <circle cx="55.794629441429066" cy="54.87340904288456" r="4" class="bean"/><circle cx="54.87340904288456" cy="40.205370558570934" r="4" class="bean"/><circle cx="40.20537055857094" cy="41.12659095711544" r="4" class="bean"/><circle cx="41.12659095711544" cy="55.79462944142906" r="4" class="bean"/><circle cx="142.90846192061204" cy="55.763578678126045" r="4" class="bean"/><circle cx="143.76357867812604" cy="41.09153807938796" r="4" class="bean"/><circle cx="129.09153807938796" cy="40.236421321873955" r="4" class="bean"/><circle cx="128.23642132187396" cy="54.90846192061204" r="4" class="bean"/><circle cx="229.9612485830761" cy="56.51255045980776" r="4" class="bean"/><circle cx="232.51255045980776" cy="42.03875141692391" r="4" class="bean"/><circle cx="218.0387514169239" cy="39.48744954019224" r="4" class="bean"/><circle cx="215.48744954019224" cy="53.96124858307609" r="4" class="bean"/><circle cx="317.4312294584859" cy="56.8601211373928" r="4" class="bean"/><circle cx="320.8601211373928" cy="42.568770541514084" r="4" class="bean"/><circle cx="306.5687705415141" cy="39.1398788626072" r="4" class="bean"/><circle cx="303.1398788626072" cy="53.431229458485916" r="4" class="bean"/><circle cx="404.8324645193784" cy="38.79960399390606" r="4" class="bean"/><circle cx="390.7996039939061" cy="43.16753548062164" r="4" class="bean"/><circle cx="395.1675354806216" cy="57.20039600609394" r="4" class="bean"/><circle cx="409.2003960060939" cy="52.83246451937836" r="4" class="bean"/><circle cx="490.6845008476155" cy="37.96040562576596" r="4" class="bean"/><circle cx="477.96040562576593" cy="45.31549915238453" r="4" class="bean"/><circle cx="485.3154991523845" cy="58.03959437423404" r="4" class="bean"/><circle cx="498.03959437423407" cy="50.68450084761547" r="4" class="bean"/><circle cx="55.91597220835041" cy="142.73330409209504" r="4" class="bean"/><circle cx="54.73330409209505" cy="128.0840277916496" r="4" class="bean"/><circle cx="40.08402779164959" cy="129.26669590790496" r="4" class="bean"/><circle cx="41.26669590790495" cy="143.9159722083504" r="4" class="bean"/><circle cx="146.04737500319732" cy="133.3447682690346" r="4" class="bean"/><circle cx="133.3447682690346" cy="125.95262499680267" r="4" class="bean"/><circle cx="125.95262499680267" cy="138.6552317309654" r="4" class="bean"/><circle cx="138.6552317309654" cy="146.04737500319732" r="4" class="bean"/><circle cx="234.37693140743676" cy="135.4349384410947" r="4" class="bean"/><circle cx="223.4349384410947" cy="125.62306859256324" r="4" class="bean"/><circle cx="213.62306859256324" cy="136.5650615589053" r="4" class="bean"/><circle cx="224.5650615589053" cy="146.37693140743676" r="4" class="bean"/><circle cx="322.19911879478315" cy="137.9944863523978" r="4" class="bean"/><circle cx="313.99448635239776" cy="125.80088120521684" r="4" class="bean"/><circle cx="301.80088120521685" cy="134.0055136476022" r="4" class="bean"/><circle cx="310.00551364760224" cy="146.19911879478315" r="4" class="bean"/><circle cx="409.8567129847775" cy="132.706793487235" r="4" class="bean"/><circle cx="396.706793487235" cy="126.14328701522246" r="4" class="bean"/><circle cx="390.1432870152225" cy="139.293206512765" r="4" class="bean"/><circle cx="403.293206512765" cy="145.85671298477754" r="4" class="bean"/><circle cx="495.20717527870727" cy="128.51290279868152" r="4" class="bean"/><circle cx="480.5129027986815" cy="128.79282472129276" r="4" class="bean"/><circle cx="480.79282472129273" cy="143.48709720131848" r="4" class="bean"/><circle cx="495.4870972013185" cy="143.20717527870724" r="4" class="bean"/>
    </svg>