
    <svg xmlns="http://www.w3.org/2000/svg" xmlns:xlink="http://www.w3.org/1999/xlink" width="535" height="180">
      <style>
        circle {
          fill: none;
          stroke: #000;
          stroke-width: 2;
        }
        .bean {
          fill: #000
        }
        .highlight {
          stroke: red;
        }
      </style>

      <circle cx="48.0" cy="48.0" r="40" /><text x="82.0" y="82.0" >1</text><circle cx="136.0" cy="48.0" r="40" /><text x="170.0" y="82.0" >2</text><circle cx="224.0" cy="48.0" r="40" /><text x="258.0" y="82.0" >3</text><circle cx="312.0" cy="48.0" r="40" /><text x="346.0" y="82.0" >0</text><circle cx="400.0" cy="48.0" r="40" /><text x="434.0" y="82.0" >0</text><circle cx="488.0" cy="48.0" r="40" /><text x="522.0" y="82.0" >0</text><circle cx="48.0" cy="136.0" r="40" /><text x="82.0" y="170.0" >1</text><circle cx="136.0" cy="136.0" r="40" /><text x="170.0" y="170.0" >1</text><circle cx="224.0" cy="136.0" r="40" /><text x="258.0" y="170.0" >1</text><circle cx="312.0" cy="136.0" r="40" /><text x="346.0" y="170.0" >0</text><circle cx="400.0" cy="136.0" r="40" /><text x="434.0" y="170.0" >0</text><circle cx="488.0" cy="136.0" r="40" /><text x="522.0" y="170.0" >0</text>
      <circle cx="48.0" cy="48.0" r="4" class="bean"/><circle cx="141.93446721164267" cy="48.8843635643433" r="4" class="bean"/><circle cx="130.06553278835733" cy="47.1156364356567" r="4" class="bean"/><circle cx="231.0233882461529" cy="52.76151420703552" r="4" class="bean"/><circle cx="224.6118981406968" cy="39.53681025467278" r="4" class="bean"/><circle cx="216.36471361315026" cy="51.701675538291695" r="4" class="bean"/><circle cx="48.0" cy="136.0" r="4" class="bean"/><circle cx="136.0" cy="136.0" r="4" class="bean"/><circle cx="224.0" cy="136.0" r="4" class="bean"/>
    </svg>
    