
    <svg xmlns="http://www.w3.org/2000/svg" xmlns:xlink="http://www.w3.org/1999/xlink" width="535" height="180">
      <style>
        circle {
          fill: none;
          stroke: #000;
          stroke-width: 2;
        }
        .bean {
          fill: #000
        }
        .highlight {
          stroke: red;
        }
      </style>

      <circle cx="48.0" cy="48.0" r="40" /><text x="82.0" y="82.0" >4</text><circle cx="136.0" cy="48.0" r="40" /><text x="170.0" y="82.0" >4</text><circle cx="224.0" cy="48.0" r="40" /><text x="258.0" y="82.0" >4</text><circle cx="312.0" cy="48.0" r="40" /><text x="346.0" y="82.0" >5</text><circle cx="400.0" cy="48.0" r="40" /><text x="434.0" y="82.0" >5</text><circle cx="488.0" cy="48.0" r="40" /><text x="522.0" y="82.0" >5</text><circle cx="48.0" cy="136.0" r="40" /><text x="82.0" y="170.0" >4</text><circle cx="136.0" cy="136.0" r="40" /><text x="170.0" y="170.0" >4</text><circle cx="224.0" cy="136.0" r="40" /><text x="258.0" y="170.0" >4</text><circle cx="312.0" cy="136.0" r="40" /><text x="346.0" y="170.0" >4</text><circle cx="400.0" cy="136.0" r="40" /><text x="434.0" y="170.0" >0</text><circle cx="488.0" cy="136.0" r="40" /><text x="522.0" y="170.0" >5</text>
      <circle cx="51.966406771731336" cy="38.39439656652619" r="4" class="bean"/><circle cx="38.39439656652619" cy="44.033593228268664" r="4" class="bean"/><circle cx="44.033593228268664" cy="57.60560343347381" r="4" class="bean"/><circle cx="57.60560343347381" cy="51.966406771731336" r="4" class="bean"/><circle cx="143.94013808903225" cy="54.70478986449982" r="4" class="bean"/><circle cx="142.70478986449982" cy="40.05986191096776" r="4" class="bean"/><circle cx="128.05986191096775" cy="41.29521013550018" r="4" class="bean"/><circle cx="129.29521013550018" cy="55.94013808903223" r="4" class="bean"/><circle cx="228.02065875392694" cy="38.416978389648136" r="4" class="bean"/><circle cx="214.41697838964814" cy="43.979341246073076" r="4" class="bean"/><circle cx="219.97934124607306" cy="57.583021610351864" r="4" class="bean"/><circle cx="233.58302161035186" cy="52.020658753926924" r="4" class="bean"/><circle cx="316.1781206046677" cy="59.24914699934404" r="4" class="bean"/><circle cx="323.9896848278787" cy="47.50254876808298" r="4" class="bean"/><circle cx="315.23191213336025" cy="36.44341123158573" r="4" class="bean"/><circle cx="302.0077467191911" cy="41.35508657903171" r="4" class="bean"/><circle cx="302.5925357149022" cy="55.44980642195553" r="4" class="bean"/><circle cx="401.2047577680049" cy="59.93937011405676" r="4" class="bean"/><circle cx="411.727306371852" cy="50.543675541557576" r="4" class="bean"/><circle cx="406.04311616628286" cy="37.63270782697762" r="4" class="bean"/><circle cx="392.0075448168747" cy="39.04898552421383" r="4" class="bean"/><circle cx="389.0172748769855" cy="52.83526099319421" r="4" class="bean"/><circle cx="495.07991984174015" cy="38.31110248611671" r="4" class="bean"/><circle cx="480.9731264336155" cy="38.272562111118546" r="4" class="bean"/><circle cx="476.577233459586" cy="51.67701027510103" r="4" class="bean"/><circle cx="487.9672155988536" cy="59.9999552158765" r="4" class="bean"/><circle cx="499.4025046662047" cy="51.73936991178722" r="4" class="bean"/><circle cx="56.963163512012656" cy="141.25943911999414" r="4" class="bean"/><circle cx="53.259439119994155" cy="127.03683648798734" r="4" class="bean"/><circle cx="39.036836487987344" cy="130.74056088000583" r="4" class="bean"/><circle cx="42.74056088000584" cy="144.96316351201267" r="4" class="bean"/><circle cx="145.7077654608623" cy="139.70935166260747" r="4" class="bean"/><circle cx="139.70935166260747" cy="126.2922345391377" r="4" class="bean"/><circle cx="126.2922345391377" cy="132.29064833739253" r="4" class="bean"/><circle cx="132.29064833739253" cy="145.7077654608623" r="4" class="bean"/><circle cx="225.1586735843796" cy="125.6724893839386" r="4" class="bean"/><circle cx="213.6724893839386" cy="134.84132641562036" r="4" class="bean"/><circle cx="222.84132641562036" cy="146.3275106160614" r="4" class="bean"/><circle cx="234.3275106160614" cy="137.15867358437964" r="4" class="bean"/><circle cx="319.5737454826444" cy="128.88393512086046" r="4" class="bean"/><circle cx="304.8839351208605" cy="128.42625451735557" r="4" class="bean"/><circle cx="304.4262545173556" cy="143.11606487913954" r="4" class="bean"/><circle cx="319.1160648791395" cy="143.57374548264443" r="4" class="bean"/><circle cx="499.4380553014581" cy="139.62917220875315" r="4" class="bean"/><circle cx="494.986101348643" cy="126.24323885982193" r="4" class="bean"/><circle cx="480.87959278085475" cy="126.34081778650263" r="4" class="bean"/><circle cx="476.6132449761851" cy="139.78705822870825" r="4" class="bean"/><circle cx="488.0830055928591" cy="147.99971291621404" r="4" class="bean"/>
    </svg>
    