<svg xmlns="http://www.w3.org/2000/svg" xmlns:xlink="http://www.w3.org/1999/xlink" width="535" height="180">
      <style>
        circle {
          fill: none;
          stroke: #000;
          stroke-width: 2;
        }
        .bean {
          fill: #000
        }
        .highlight {
          stroke: red;
        }
      </style>

      <circle cx="48.0" cy="48.0" r="40"/><text x="82.0" y="82.0">0</text><circle cx="136.0" cy="48.0" r="40"/><text x="170.0" y="82.0">0</text><circle cx="224.0" cy="48.0" r="40"/><text x="258.0" y="82.0">0</text><circle cx="312.0" cy="48.0" r="40"/><text x="346.0" y="82.0">0</text><circle cx="400.0" cy="48.0" r="40"/><text x="434.0" y="82.0">0</text><circle cx="488.0" cy="48.0" r="40"/><text x="522.0" y="82.0">0</text><circle cx="48.0" cy="136.0" r="40"/><text x="82.0" y="170.0">2</text><circle cx="136.0" cy="136.0" r="40"/><text x="170.0" y="170.0">0</text><circle cx="224.0" cy="136.0" r="40"/><text x="258.0" y="170.0">0</text><circle cx="312.0" cy="136.0" r="40"/><text x="346.0" y="170.0">0</text><circle cx="400.0" cy="136.0" r="40" class="highlight"/><text x="434.0" y="170.0">3</text><circle cx="488.0" cy="136.0" r="40"/><text x="522.0" y="170.0">0</text>
      <circle cx="48.000059525469744" cy="141.99999999970473" r="4" class="bean"/><circle cx="47.999940474530256" cy="130.00000000029527" r="4" class="bean"/><circle cx="408.3824028479482" cy="137.31731639886186" r="4" class="bean"/><circle cx="396.94962804226213" cy="128.08196798949092" r="4" class="bean"/><circle cx="394.6679691097897" cy="142.6007156116472" r="4" class="bean"/>
    </svg>