<?xml version="1.0" encoding="UTF-8" standalone="no"?>
<!DOCTYPE svg PUBLIC "-//W3C//DTD SVG 1.1//EN" "http://www.w3.org/Graphics/SVG/1.1/DTD/svg11.dtd">
<svg width="100%" height="100%" viewBox="0 0 422 263" version="1.1" xmlns="http://www.w3.org/2000/svg" xmlns:xlink="http://www.w3.org/1999/xlink" xml:space="preserve" xmlns:serif="http://www.serif.com/" style="fill-rule:evenodd;clip-rule:evenodd;">
    <g id="graph0" transform="matrix(1,0,0,1,4,259)">
        <rect x="-4" y="-259" width="422" height="263" style="fill:white;fill-rule:nonzero;"/>
        <g transform="matrix(1,0,0,1,3.5733,-204.907)">
            <path d="M40.191,166.612L22.258,166.612L22.258,184.545L40.191,184.545L40.191,166.612ZM39.191,167.612L39.191,183.545C39.191,183.545 23.258,183.545 23.258,183.545C23.258,183.545 23.258,167.612 23.258,167.612L39.191,167.612Z"/>
        </g>
        <g transform="matrix(1,0,0,1,66.7916,-204.907)">
            <path d="M40.191,166.612L22.258,166.612L22.258,184.545L40.191,184.545L40.191,166.612ZM39.191,167.612L39.191,183.545C39.191,183.545 23.258,183.545 23.258,183.545C23.258,183.545 23.258,167.612 23.258,167.612L39.191,167.612Z"/>
        </g>
        <g id="node1" transform="matrix(1,0,0,1,0,10)">
            <circle cx="198" cy="-237" r="18" style="fill:none;stroke:black;stroke-width:1px;"/>
            <g transform="matrix(1,0,0,1,198,-233.3)">
                <text x="-3.5px" y="0px" style="font-family:'Times-Roman', 'Times';font-size:14px;">1</text>
            </g>
        </g>
        <g id="node2" transform="matrix(1,0,0,1,0,10)">
            <circle cx="99" cy="-165" r="18" style="fill:none;stroke:black;stroke-width:1px;"/>
            <g transform="matrix(1,0,0,1,99,-161.3)">
                <text x="-3.5px" y="0px" style="font-family:'Times-Roman', 'Times';font-size:14px;">2</text>
            </g>
        </g>
        <g id="edge1" transform="matrix(1,0,0,1,0,10)">
            <path d="M183.39,-225.67C167.14,-214.18 140.68,-195.47 121.72,-182.06" style="fill:none;fill-rule:nonzero;stroke:black;stroke-width:1px;"/>
            <path d="M123.53,-179.06L113.35,-176.14L119.49,-184.77L123.53,-179.06Z" style="fill-rule:nonzero;stroke:black;stroke-width:1px;"/>
        </g>
        <g id="node3" transform="matrix(1,0,0,1,0,10)">
            <circle cx="198" cy="-165" r="18" style="fill:none;stroke:black;stroke-width:1px;"/>
            <g transform="matrix(1,0,0,1,198,-161.3)">
                <text x="-3.5px" y="0px" style="font-family:'Times-Roman', 'Times';font-size:14px;">3</text>
            </g>
        </g>
        <g id="edge2" transform="matrix(1,0,0,1,0,10)">
            <path d="M198,-218.69L198,-193.11" style="fill:none;fill-rule:nonzero;stroke:black;stroke-width:1px;"/>
            <path d="M201.5,-193.1L198,-183.1L194.5,-193.1L201.5,-193.1Z" style="fill-rule:nonzero;stroke:black;stroke-width:1px;"/>
        </g>
        <g id="node4" transform="matrix(1,0,0,1,0,10)">
            <circle cx="315" cy="-165" r="18" style="fill:none;stroke:black;stroke-width:1px;"/>
            <g transform="matrix(1,0,0,1,315,-161.3)">
                <text x="-3.5px" y="0px" style="font-family:'Times-Roman', 'Times';font-size:14px;">4</text>
            </g>
        </g>
        <g id="edge3" transform="matrix(1,0,0,1,0,10)">
            <path d="M213.3,-226.85C233.09,-215 267.8,-194.24 291.09,-180.3" style="fill:none;fill-rule:nonzero;stroke:black;stroke-width:1px;"/>
            <path d="M292.92,-183.29L299.7,-175.15L289.32,-177.28L292.92,-183.29Z" style="fill-rule:nonzero;stroke:black;stroke-width:1px;"/>
        </g>
        <g id="node5" transform="matrix(1,0,0,1,0,10)">
            <circle cx="36" cy="-91.5" r="18" style="fill:none;stroke:black;stroke-width:1px;"/>
            <g transform="matrix(1,0,0,1,36,-87.8)">
                <text x="-3.5px" y="0px" style="font-family:'Times-Roman', 'Times';font-size:14px;">5</text>
            </g>
        </g>
        <g id="edge4" transform="matrix(1,0,0,1,0,10)">
            <path d="M87.44,-150.88C78.12,-140.3 64.83,-125.22 54.1,-113.04" style="fill:none;fill-rule:nonzero;stroke:black;stroke-width:1px;"/>
            <path d="M56.72,-110.72L47.48,-105.53L51.47,-115.35L56.72,-110.72Z" style="fill-rule:nonzero;stroke:black;stroke-width:1px;"/>
        </g>
        <g id="node6" transform="matrix(1,0,0,1,0,10)">
            <circle cx="99" cy="-91.5" r="18" style="fill:none;stroke:black;stroke-width:1px;"/>
            <g transform="matrix(1,0,0,1,99,-87.8)">
                <text x="-3.5px" y="0px" style="font-family:'Times-Roman', 'Times';font-size:14px;">6</text>
            </g>
        </g>
        <g id="edge5" transform="matrix(1,0,0,1,0,10)">
            <path d="M99,-146.69L99,-119.76" style="fill:none;fill-rule:nonzero;stroke:black;stroke-width:1px;"/>
            <path d="M102.5,-119.65L99,-109.65L95.5,-119.65L102.5,-119.65Z" style="fill-rule:nonzero;stroke:black;stroke-width:1px;"/>
        </g>
        <g id="edge51" serif:id="edge5" transform="matrix(1,0,0,1,-64.2022,71.3549)">
            <clipPath id="_clip1">
                <rect x="95.5" y="-134.259" width="7" height="24.609"/>
            </clipPath>
            <g clip-path="url(#_clip1)">
                <path d="M99,-146.69L99,-119.76" style="fill:none;fill-rule:nonzero;stroke:black;stroke-width:1px;"/>
                <path d="M102.5,-119.65L99,-109.65L95.5,-119.65L102.5,-119.65Z" style="fill-rule:nonzero;stroke:black;stroke-width:1px;"/>
            </g>
        </g>
        <g id="node7" transform="matrix(1,0,0,1,0,10)">
            <circle cx="175" cy="-91.5" r="18" style="fill:none;stroke:black;stroke-width:1px;"/>
            <g transform="matrix(1,0,0,1,175,-87.8)">
                <text x="-3.5px" y="0px" style="font-family:'Times-Roman', 'Times';font-size:14px;">7</text>
            </g>
        </g>
        <g id="edge6" transform="matrix(1,0,0,1,0,10)">
            <path d="M192.67,-147.41C189.91,-138.84 186.48,-128.18 183.38,-118.54" style="fill:none;fill-rule:nonzero;stroke:black;stroke-width:1px;"/>
            <path d="M186.7,-117.44L180.31,-108.99L180.04,-119.58L186.7,-117.44Z" style="fill-rule:nonzero;stroke:black;stroke-width:1px;"/>
        </g>
        <g id="node8" transform="matrix(1,0,0,1,0,10)">
            <circle cx="234" cy="-91.5" r="18" style="fill:none;stroke:black;stroke-width:1px;"/>
            <g transform="matrix(1,0,0,1,234,-87.8)">
                <text x="-3.5px" y="0px" style="font-family:'Times-Roman', 'Times';font-size:14px;">8</text>
            </g>
        </g>
        <g id="edge7" transform="matrix(1,0,0,1,0,10)">
            <path d="M205.81,-148.48C210.43,-139.3 216.39,-127.46 221.64,-117.04" style="fill:none;fill-rule:nonzero;stroke:black;stroke-width:1px;"/>
            <path d="M224.83,-118.49L226.2,-107.98L218.58,-115.34L224.83,-118.49Z" style="fill-rule:nonzero;stroke:black;stroke-width:1px;"/>
        </g>
        <g id="node9" transform="matrix(1,0,0,1,0,10)">
            <circle cx="315" cy="-91.5" r="18" style="fill:none;stroke:black;stroke-width:1px;"/>
            <g transform="matrix(1,0,0,1,315,-87.8)">
                <text x="-3.5px" y="0px" style="font-family:'Times-Roman', 'Times';font-size:14px;">9</text>
            </g>
        </g>
        <g id="edge8" transform="matrix(1,0,0,1,0,10)">
            <path d="M315,-146.69L315,-119.76" style="fill:none;fill-rule:nonzero;stroke:black;stroke-width:1px;"/>
            <path d="M318.5,-119.65L315,-109.65L311.5,-119.65L318.5,-119.65Z" style="fill-rule:nonzero;stroke:black;stroke-width:1px;"/>
        </g>
        <g id="node10" transform="matrix(1,0,0,1,0,10)">
            <circle cx="378" cy="-91.5" r="19.5" style="fill:none;stroke:black;stroke-width:1px;"/>
            <g transform="matrix(1,0,0,1,378,-87.8)">
                <text x="-7px" y="0px" style="font-family:'Times-Roman', 'Times';font-size:14px;">10</text>
            </g>
        </g>
        <g id="edge9" transform="matrix(1,0,0,1,0,10)">
            <path d="M326.56,-150.88C335.44,-140.79 347.93,-126.62 358.38,-114.76" style="fill:none;fill-rule:nonzero;stroke:black;stroke-width:1px;"/>
            <path d="M361.23,-116.82L365.22,-107L355.98,-112.19L361.23,-116.82Z" style="fill-rule:nonzero;stroke:black;stroke-width:1px;"/>
        </g>
        <g transform="matrix(1,0,0,1,34.7705,-24.6323)">
            <g id="node11">
                <text x="-3.5px" y="0px" style="font-family:'Times-Roman', 'Times';font-size:14px;">1</text>
            </g>
        </g>
        <g id="edge52" serif:id="edge5" transform="matrix(1,0,0,1,-0.983879,70.6927)">
            <clipPath id="_clip2">
                <rect x="95.5" y="-134.259" width="7" height="24.609"/>
            </clipPath>
            <g clip-path="url(#_clip2)">
                <path d="M99,-146.69L99,-119.76" style="fill:none;fill-rule:nonzero;stroke:black;stroke-width:1px;"/>
                <path d="M102.5,-119.65L99,-109.65L95.5,-119.65L102.5,-119.65Z" style="fill-rule:nonzero;stroke:black;stroke-width:1px;"/>
            </g>
        </g>
        <g transform="matrix(1,0,0,1,143.542,-205.569)">
            <path d="M40.191,166.612L22.258,166.612L22.258,184.545L40.191,184.545L40.191,166.612ZM39.191,167.612L39.191,183.545C39.191,183.545 23.258,183.545 23.258,183.545C23.258,183.545 23.258,167.612 23.258,167.612L39.191,167.612Z"/>
        </g>
        <g id="edge53" serif:id="edge5" transform="matrix(1,0,0,1,75.7663,70.6927)">
            <clipPath id="_clip3">
                <rect x="95.5" y="-134.259" width="7" height="24.609"/>
            </clipPath>
            <g clip-path="url(#_clip3)">
                <path d="M99,-146.69L99,-119.76" style="fill:none;fill-rule:nonzero;stroke:black;stroke-width:1px;"/>
                <path d="M102.5,-119.65L99,-109.65L95.5,-119.65L102.5,-119.65Z" style="fill-rule:nonzero;stroke:black;stroke-width:1px;"/>
            </g>
        </g>
        <g transform="matrix(1,0,0,1,174.739,-25.2944)">
            <g id="node111" serif:id="node11">
                <text x="-3.5px" y="0px" style="font-family:'Times-Roman', 'Times';font-size:14px;">1</text>
            </g>
        </g>
        <g transform="matrix(1,0,0,1,283.892,-205.569)">
            <path d="M40.191,166.612L22.258,166.612L22.258,184.545L40.191,184.545L40.191,166.612ZM39.191,167.612L39.191,183.545C39.191,183.545 23.258,183.545 23.258,183.545C23.258,183.545 23.258,167.612 23.258,167.612L39.191,167.612Z"/>
        </g>
        <g id="edge54" serif:id="edge5" transform="matrix(1,0,0,1,216.116,70.6927)">
            <clipPath id="_clip4">
                <rect x="95.5" y="-134.259" width="7" height="24.609"/>
            </clipPath>
            <g clip-path="url(#_clip4)">
                <path d="M99,-146.69L99,-119.76" style="fill:none;fill-rule:nonzero;stroke:black;stroke-width:1px;"/>
                <path d="M102.5,-119.65L99,-109.65L95.5,-119.65L102.5,-119.65Z" style="fill-rule:nonzero;stroke:black;stroke-width:1px;"/>
            </g>
        </g>
        <g transform="matrix(1,0,0,1,315.089,-25.2944)">
            <g id="node112" serif:id="node11">
                <text x="-3.5px" y="0px" style="font-family:'Times-Roman', 'Times';font-size:14px;">1</text>
            </g>
        </g>
        <g transform="matrix(1,0,0,1,98.4912,-24.6323)">
            <g id="node12">
                <text x="-5.831px" y="0px" style="font-family:'Times-Roman', 'Times';font-size:14px;">-1</text>
            </g>
        </g>
        <g transform="matrix(1,0,0,1,203.612,-204.907)">
            <path d="M40.191,166.612L22.258,166.612L22.258,184.545L40.191,184.545L40.191,166.612ZM39.191,167.612L39.191,183.545C39.191,183.545 23.258,183.545 23.258,183.545C23.258,183.545 23.258,167.612 23.258,167.612L39.191,167.612Z"/>
        </g>
        <g id="edge55" serif:id="edge5" transform="matrix(1,0,0,1,135.837,70.6927)">
            <clipPath id="_clip5">
                <rect x="95.5" y="-134.259" width="7" height="24.609"/>
            </clipPath>
            <g clip-path="url(#_clip5)">
                <path d="M99,-146.69L99,-119.76" style="fill:none;fill-rule:nonzero;stroke:black;stroke-width:1px;"/>
                <path d="M102.5,-119.65L99,-109.65L95.5,-119.65L102.5,-119.65Z" style="fill-rule:nonzero;stroke:black;stroke-width:1px;"/>
            </g>
        </g>
        <g transform="matrix(1,0,0,1,235.312,-24.6323)">
            <g id="node121" serif:id="node12">
                <text x="-5.831px" y="0px" style="font-family:'Times-Roman', 'Times';font-size:14px;">-1</text>
            </g>
        </g>
        <g transform="matrix(1,0,0,1,347.651,-204.907)">
            <path d="M40.191,166.612L22.258,166.612L22.258,184.545L40.191,184.545L40.191,166.612ZM39.191,167.612L39.191,183.545C39.191,183.545 23.258,183.545 23.258,183.545C23.258,183.545 23.258,167.612 23.258,167.612L39.191,167.612Z"/>
        </g>
        <g id="edge56" serif:id="edge5" transform="matrix(1,0,0,1,279.876,71.6927)">
            <clipPath id="_clip6">
                <rect x="95.5" y="-134.259" width="7" height="24.609"/>
            </clipPath>
            <g clip-path="url(#_clip6)">
                <path d="M99,-146.69L99,-119.76" style="fill:none;fill-rule:nonzero;stroke:black;stroke-width:1px;"/>
                <path d="M102.5,-119.65L99,-109.65L95.5,-119.65L102.5,-119.65Z" style="fill-rule:nonzero;stroke:black;stroke-width:1px;"/>
            </g>
        </g>
        <g transform="matrix(1,0,0,1,379.351,-24.6323)">
            <g id="node122" serif:id="node12">
                <text x="-5.831px" y="0px" style="font-family:'Times-Roman', 'Times';font-size:14px;">-1</text>
            </g>
        </g>
    </g>
</svg>
