<?xml version="1.0" encoding="UTF-8" standalone="no"?>
<!DOCTYPE svg PUBLIC "-//W3C//DTD SVG 1.1//EN" "http://www.w3.org/Graphics/SVG/1.1/DTD/svg11.dtd">
<svg width="100%" height="100%" viewBox="0 0 114 168" version="1.1" xmlns="http://www.w3.org/2000/svg" xmlns:xlink="http://www.w3.org/1999/xlink" xml:space="preserve" xmlns:serif="http://www.serif.com/" style="fill-rule:evenodd;clip-rule:evenodd;">
    <g id="Artboard1" transform="matrix(1,0,0,1,-8.16609,0)">
        <rect x="8.166" y="0" width="113.66" height="167.128" style="fill:none;"/>
        <clipPath id="_clip1">
            <rect x="8.166" y="0" width="113.66" height="167.128"/>
        </clipPath>
        <g clip-path="url(#_clip1)">
            <g id="graph0" transform="matrix(1,0,0,1,4.16609,214)">
                <clipPath id="_clip2">
                    <rect x="3.961" y="-214" width="113.865" height="167.128"/>
                </clipPath>
                <g clip-path="url(#_clip2)">
                    <rect x="-4" y="-214" width="134" height="218" style="fill:white;fill-rule:nonzero;"/>
                </g>
                <g transform="matrix(1,0,0,1,1.79809,-240.977)">
                    <path d="M40.191,166.612L22.258,166.612L22.258,184.545L40.191,184.545L40.191,166.612ZM39.191,167.612L39.191,183.545C39.191,183.545 23.258,183.545 23.258,183.545C23.258,183.545 23.258,167.612 23.258,167.612L39.191,167.612Z"/>
                </g>
                <g transform="matrix(1,0,0,1,59.7981,-240.977)">
                    <path d="M40.191,166.612L22.258,166.612L22.258,184.545L40.191,184.545L40.191,166.612ZM39.191,167.612L39.191,183.545C39.191,183.545 23.258,183.545 23.258,183.545C23.258,183.545 23.258,167.612 23.258,167.612L39.191,167.612Z"/>
                </g>
                <g id="node1" transform="matrix(1,0,0,1,4,0)">
                    <circle cx="59" cy="-192" r="18" style="fill:none;stroke:black;stroke-width:1px;"/>
                    <g transform="matrix(1,0,0,1,59,-188.3)">
                        <text x="-3.893px" y="0px" style="font-family:'Times-Roman', 'Times';font-size:14px;">S</text>
                    </g>
                </g>
                <g id="node2" transform="matrix(1,0,0,1,2,-19)">
                    <circle cx="32" cy="-105" r="18" style="fill:none;stroke:black;stroke-width:1px;"/>
                    <g transform="matrix(1,0,0,1,32,-101.3)">
                        <text x="-5.055px" y="0px" style="font-family:'Times-Roman', 'Times';font-size:14px;">N</text>
                    </g>
                </g>
                <g transform="matrix(0.668747,0,0,0.668747,20.8181,-57.8401)">
                    <path d="M53.79,-174.61C49.98,-162.62 44.74,-146.09 40.34,-132.27" style="fill:none;fill-rule:nonzero;stroke:black;stroke-width:1px;"/>
                </g>
                <g transform="matrix(0.668747,0,0,0.668747,20.8181,-57.8401)">
                    <path d="M43.55,-130.81L37.19,-122.34L36.88,-132.93L43.55,-130.81Z" style="fill-rule:nonzero;stroke:black;stroke-width:1px;"/>
                </g>
                <g transform="matrix(1,0,0,1,45.5,-159.8)">
                    <text x="-3.5px" y="0px" style="font-family:'Times-Roman', 'Times';font-size:14px;">2</text>
                </g>
                <g id="node3" transform="matrix(1,0,0,1,-3.39792,-19)">
                    <circle cx="95" cy="-105" r="18" style="fill:none;stroke:black;stroke-width:1px;"/>
                    <g transform="matrix(1,0,0,1,95,-101.3)">
                        <text x="-5.055px" y="0px" style="font-family:'Times-Roman', 'Times';font-size:14px;">N</text>
                    </g>
                </g>
                <g transform="matrix(0.559321,0,0,0.676135,33.4233,-56.6413)">
                    <path d="M65.77,-175.01C71,-162.66 78.34,-145.35 84.35,-131.15" style="fill:none;fill-rule:nonzero;stroke:black;stroke-width:1px;"/>
                </g>
                <g transform="matrix(0.676135,0,0,0.676135,22.7405,-58.6413)">
                    <path d="M87.58,-132.49L88.26,-121.92L81.14,-129.76L87.58,-132.49Z" style="fill-rule:nonzero;stroke:black;stroke-width:1px;"/>
                </g>
                <g transform="matrix(0.980441,0,0,0.980441,84.6127,-160.352)">
                    <text x="-3.5px" y="0px" style="font-family:'Times-Roman', 'Times';font-size:14px;">4</text>
                </g>
                <g transform="matrix(1,0,0,1,33.2311,-60.7607)">
                    <g id="node4">
                        <text x="-3.5px" y="0px" style="font-family:'Times-Roman', 'Times';font-size:14px;">0</text>
                    </g>
                </g>
                <g transform="matrix(0.638394,-0.199188,0.199188,0.638394,34.3716,16.4252)">
                    <path d="M53.79,-174.61C49.98,-162.62 44.74,-146.09 40.34,-132.27" style="fill:none;fill-rule:nonzero;stroke:black;stroke-width:1px;"/>
                </g>
                <g transform="matrix(0.638394,-0.199188,0.199188,0.638394,34.3716,16.4252)">
                    <path d="M53.79,-174.61C49.98,-162.62 44.74,-146.09 40.34,-132.27" style="fill:none;fill-rule:nonzero;stroke:black;stroke-width:1px;"/>
                </g>
                <g transform="matrix(1,0,0,1,25.8859,-91.0552)">
                    <text x="-4.761px" y="0px" style="font-family:'Times-Roman', 'Times';font-size:14px;">6&apos;</text>
                </g>
                <g transform="matrix(1,0,0,1,91.421,-60.6309)">
                    <g id="node5">
                        <text x="-5.831px" y="0px" style="font-family:'Times-Roman', 'Times';font-size:14px;">-1</text>
                    </g>
                </g>
                <g transform="matrix(0.643832,-0.180838,0.180838,0.643832,31.9014,10.2523)">
                    <path d="M43.55,-130.81L37.19,-122.34L36.88,-132.93L43.55,-130.81Z" style="fill-rule:nonzero;stroke:black;stroke-width:1px;"/>
                </g>
                <g transform="matrix(0.638394,-0.199188,0.199188,0.638394,91.3716,16.4252)">
                    <path d="M53.79,-174.61C49.98,-162.62 44.74,-146.09 40.34,-132.27" style="fill:none;fill-rule:nonzero;stroke:black;stroke-width:1px;"/>
                </g>
                <g transform="matrix(0.643832,-0.180838,0.180838,0.643832,88.9014,10.2523)">
                    <path d="M43.55,-130.81L37.19,-122.34L36.88,-132.93L43.55,-130.81Z" style="fill-rule:nonzero;stroke:black;stroke-width:1px;"/>
                </g>
                <g transform="matrix(1,0,0,1,99.9729,-91.0552)">
                    <text x="-4.761px" y="0px" style="font-family:'Times-Roman', 'Times';font-size:14px;">6&apos;</text>
                </g>
            </g>
        </g>
    </g>
</svg>
