<svg xmlns="http://www.w3.org/2000/svg" xmlns:xlink="http://www.w3.org/1999/xlink" width="535" height="180">
      <style>
        circle {
          fill: none;
          stroke: #000;
          stroke-width: 2;
        }
        .bean {
          fill: #000
        }
        .highlight {
          stroke: red;
        }
      </style>

      <circle cx="48.0" cy="48.0" r="40"/><text x="82.0" y="82.0">0</text><circle cx="136.0" cy="48.0" r="40"/><text x="170.0" y="82.0">0</text><circle cx="224.0" cy="48.0" r="40"/><text x="258.0" y="82.0">0</text><circle cx="312.0" cy="48.0" r="40"/><text x="346.0" y="82.0">0</text><circle cx="400.0" cy="48.0" r="40"/><text x="434.0" y="82.0">0</text><circle cx="488.0" cy="48.0" r="40"/><text x="522.0" y="82.0">0</text><circle cx="48.0" cy="136.0" r="40"/><text x="82.0" y="170.0">2</text><circle cx="136.0" cy="136.0" r="40"/><text x="170.0" y="170.0">0</text><circle cx="224.0" cy="136.0" r="40"/><text x="258.0" y="170.0">0</text><circle cx="312.0" cy="136.0" r="40"/><text x="346.0" y="170.0">0</text><circle cx="400.0" cy="136.0" r="40" class="highlight"/><text x="434.0" y="170.0">3</text><circle cx="488.0" cy="136.0" r="40"/><text x="522.0" y="170.0">0</text>
      <circle cx="53.228072421467154" cy="133.05597915158629" r="4" class="bean"/><circle cx="42.771927578532846" cy="138.94402084841371" r="4" class="bean"/><circle cx="404.91234343928784" cy="129.08126587196142" r="4" class="bean"/><circle cx="391.5520287634443" cy="135.20515285348222" r="4" class="bean"/><circle cx="403.53562779726786" cy="143.71358127455636" r="4" class="bean"/>
    </svg>